<svg id="Layer_1" data-name="Layer 1" xmlns="http://www.w3.org/2000/svg" viewBox="0 0 67.33 67.33">
  <defs>
    <clipPath id="clip-path">
      <path id="SVGID" class="cls-1" d="M293.58 318.66h65.39v58.98h-65.39z"/>
    </clipPath>
    <clipPath id="clip-path-2">
      <path id="SVGID-2" data-name="SVGID" class="cls-1" d="M5.88 430.04h65.39v58.98H5.88z"/>
    </clipPath>
    <clipPath id="clip-path-3">
      <path id="SVGID-3" data-name="SVGID" class="cls-1" d="M13.2 2.89h65.39v58.98H13.2z"/>
    </clipPath>
    <clipPath id="clip-path-4">
      <path id="SVGID-4" data-name="SVGID" class="cls-1" d="M112.6 372.98h131.84V491.9H112.6z"/>
    </clipPath>
    <clipPath id="clip-path-5">
      <path id="SVGID-5" data-name="SVGID" class="cls-1" d="M0 237.99h131.84v118.92H0z"/>
    </clipPath>
    <clipPath id="clip-path-6">
      <path id="SVGID-6" data-name="SVGID" class="cls-1" d="M142.86 196.75h167.85v151.39H142.86z"/>
    </clipPath>
    <clipPath id="clip-path-7">
      <path id="SVGID-7" data-name="SVGID" class="cls-1" d="M365.18 372.79h131.84v118.92H365.18z"/>
    </clipPath>
    <clipPath id="clip-path-8">
      <path id="SVGID-8" data-name="SVGID" class="cls-1" d="M95.22 68.06h131.84v118.92H95.22z"/>
    </clipPath>
    <clipPath id="clip-path-9">
      <path id="SVGID-9" data-name="SVGID" class="cls-1" d="M307.35 0h131.84v118.92H307.35z"/>
    </clipPath>
    <clipPath id="clip-path-10">
      <path id="SVGID-10" data-name="SVGID" class="cls-1" d="M346.53 146.13h131.84v118.92H346.53z"/>
    </clipPath>
    <pattern id="Unnamed_Pattern_15" data-name="Unnamed Pattern 15" width="497.02" height="491.89" patternTransform="matrix(1 0 0 -1 2862.76 18817.71)" patternUnits="userSpaceOnUse" viewBox="0 0 497.02 491.89">
      <path class="cls-1" d="M0 0h497.02v491.89H0z"/>
      <g style="clip-path:url(#clip-path)" class="cls-2">
        <path class="cls-4" d="M340.46 341c-2.5-2.86-2.37-6.79.21-10 1.94-2.4 4.6-3.44 7.41-4.3a21.4 21.4 0 0 1 7.5-1 5.1 5.1 0 0 0 1.86-.19c1.57-.5 2-1.67 1-3.09 0 1.72-.6 2.3-2.38 2.2a3.87 3.87 0 0 1-2.69-.92 2 2 0 0 1-.56-2.62 1.73 1.73 0 0 0-1 2.48c.52 1.19.46 1.3-.84 1.42a26 26 0 0 0-10.92 3 10 10 0 0 0-4.49 4.77 5.17 5.17 0 0 0 1.18 5.82 14 14 0 0 0 3.54 2.51l.14-.13m-44.48 20.77a74 74 0 0 1 8.82-6.19c4.59-2.68 9.61-4.25 14.62-5.86l1.71-.55v-.15a9.2 9.2 0 0 0-2.4.37 59.2 59.2 0 0 0-12.33 3.42 24.4 24.4 0 0 0-9.13 7.17c-.46.56-.85 1.18-1.27 1.77Zm7.11-12.06c5-1.24 10.09-2.37 15.35-2.2a21.6 21.6 0 0 0-3.85-.58 23.4 23.4 0 0 0-4 .06 15 15 0 0 0-3.88.94 20 20 0 0 0-3.61 1.78"/>
        <path class="cls-4" d="M340.32 341.13c.06.17.18.15.31.09l-.17-.22zm-44.35 20.57-.04-.02.01.03z"/>
        <path class="cls-4" d="M329 320.21a1.78 1.78 0 0 0-2.61.49 3 3 0 0 0-.23.36 1.42 1.42 0 0 1-.84.62.23.23 0 0 1-.31-.05 1.23 1.23 0 0 1-.17-1.4 2.48 2.48 0 0 1 1.09-1.13 4.58 4.58 0 0 1 3.75-.08 2.36 2.36 0 0 1 1.5 2.39 2.13 2.13 0 0 1-1.55 2 9 9 0 0 1-.86.27c-.47.14-.95.23-1.4.41s-.68.59-.95 1c-.05.07 0 .13 0 .19.79.92 1.75 1.16 2.63.19.14-.15.23-.33.36-.48s.81-.45 1-.35a1.06 1.06 0 0 1 .18 1.18 3 3 0 0 1-2.67 1.46 4.2 4.2 0 0 1-1.59-.29 2 2 0 0 1-1.54-2.08 2 2 0 0 1 1.53-2l.57-.19a13 13 0 0 0 2.05-.66 1 1 0 0 0 .07-1.84m3.11-.42c.22.65.48 1.28.74 1.92.6 1.52 1.22 3 1.82 4.54a1.3 1.3 0 0 0 1.24.91 1.22 1.22 0 0 0 1.14-.89c.89-2 1.71-4.13 2.54-6.2.1-.25.26-.54.14-.79s-.29-.55-.68-.53a.83.83 0 0 0-.8.64c-.32 1.24-.58 1.53-1.88 1.43-.1 0 0 0 0 0h-1.14a1.63 1.63 0 0 1-1.42-.85c-.08-.21-.13-.44-.19-.66-.17-.53-.5-.73-1-.6a.74.74 0 0 0-.54 1.07m2.83 2.3h1.81c.23 0 .32.06.23.3-.33.86-.64 1.72-.95 2.59 0 .09-.06.2-.18.21s-.16-.11-.19-.2c-.31-.87-.61-1.73-.93-2.59-.08-.22 0-.32.21-.31m-21.62 2.49c.63-1.7 1.25-3.41 1.89-5.11a1.11 1.11 0 0 1 1.12-.78 1.14 1.14 0 0 1 1.12.79 404 404 0 0 1 2.47 6.65c.2.58 0 .93-.63 1.07-.45.1-.71-.07-.9-.62-.35-1-.68-2-1-3l-1-2.85c-.18.1-.17.24-.21.35q-.93 2.73-1.87 5.45c-.21.63-.54.84-1 .69s-.7-.49-.51-1.16c.15-.49.34-1 .52-1.46m8.04-5.15c.1-.54.39-.78.87-.75a.76.76 0 0 1 .73.87v6.9a.79.79 0 0 1-1.2.69.9.9 0 0 1-.43-.92v-6.49a1.5 1.5 0 0 1 0-.3m-4.92 19.37a8.32 8.32 0 1 0 8.32-8.32 8.33 8.33 0 0 0-8.32 8.32m1.47 0a6.85 6.85 0 1 1 6.85 6.85 6.85 6.85 0 0 1-6.85-6.85m21.49 10.85a36.5 36.5 0 0 0 7.91-2.93 8.8 8.8 0 0 0 3.76-3.26c1.25-2.19.52-4.28-2-5.34 1.39 1.61 1.24 2.7-.46 3.81a31.86 31.86 0 0 1-13.74 4.37c-3.72.32-17.07 6.75-17.07 6.75-9.8 4.53-19.44 13.95-23.8 23.79l-.35.77c.52-.06.58-.49.75-.77 0 0 7.65-12 19.25-18s19.35-8.24 25.77-9.16m1.09-8.7c-2.5-2.86-2.37-6.79.21-10 1.94-2.4 4.6-3.44 7.41-4.3a21.4 21.4 0 0 1 7.5-1 5.1 5.1 0 0 0 1.86-.19c1.57-.5 2-1.67 1-3.09 0 1.72-.6 2.3-2.38 2.2a3.87 3.87 0 0 1-2.69-.92 2 2 0 0 1-.56-2.62 1.73 1.73 0 0 0-1 2.48c.52 1.19.46 1.3-.84 1.42a26 26 0 0 0-10.92 3 10 10 0 0 0-4.49 4.77 5.17 5.17 0 0 0 1.18 5.82 14 14 0 0 0 3.54 2.51l.14-.13m-25.15 1.83a10 10 0 0 1-4.46-4.79 26.1 26.1 0 0 1-2.32-11.11c0-1.3-.14-1.37-1.37-.92a1.73 1.73 0 0 1-2.41-1.13 2 2 0 0 0 2.66-.39 3.88 3.88 0 0 0 1.09-2.62c.22-1.77-.32-2.41-2-2.52 1.48-.86 2.63-.39 3 1.21a5.1 5.1 0 0 1 .07 1.87 21.6 21.6 0 0 0 .51 7.55s1.22 7.73 5.25 12.85m-19.35 18.94a74 74 0 0 1 8.82-6.19c4.59-2.68 9.61-4.25 14.62-5.86l1.71-.55v-.15a9.2 9.2 0 0 0-2.4.37 59.2 59.2 0 0 0-12.33 3.42 24.4 24.4 0 0 0-9.13 7.17c-.46.56-.85 1.18-1.27 1.77Zm7.11-12.06c5-1.24 10.09-2.37 15.35-2.2a21.6 21.6 0 0 0-3.85-.58 23.4 23.4 0 0 0-4 .06 15 15 0 0 0-3.88.94 20 20 0 0 0-3.61 1.78"/>
        <path class="cls-4" d="M340.32 341.13c.06.17.18.15.31.09l-.17-.22zm-44.35 20.57-.04-.02.01.03zM329 320.21a1.78 1.78 0 0 0-2.61.49 3 3 0 0 0-.23.36 1.42 1.42 0 0 1-.84.62.23.23 0 0 1-.31-.05 1.23 1.23 0 0 1-.17-1.4 2.48 2.48 0 0 1 1.09-1.13 4.58 4.58 0 0 1 3.75-.08 2.36 2.36 0 0 1 1.5 2.39 2.13 2.13 0 0 1-1.55 2 9 9 0 0 1-.86.27c-.47.14-.95.23-1.4.41s-.68.59-.95 1c-.05.07 0 .13 0 .19.79.92 1.75 1.16 2.63.19.14-.15.23-.33.36-.48s.81-.45 1-.35a1.06 1.06 0 0 1 .18 1.18 3 3 0 0 1-2.67 1.46 4.2 4.2 0 0 1-1.59-.29 2 2 0 0 1-1.54-2.08 2 2 0 0 1 1.53-2l.57-.19a13 13 0 0 0 2.05-.66 1 1 0 0 0 .07-1.84m3.11-.42c.22.65.48 1.28.74 1.92.6 1.52 1.22 3 1.82 4.54a1.3 1.3 0 0 0 1.24.91 1.22 1.22 0 0 0 1.14-.89c.89-2 1.71-4.13 2.54-6.2.1-.25.26-.54.14-.79s-.29-.55-.68-.53a.83.83 0 0 0-.8.64c-.32 1.24-.58 1.53-1.88 1.43-.1 0 0 0 0 0h-1.14a1.63 1.63 0 0 1-1.42-.85c-.08-.21-.13-.44-.19-.66-.17-.53-.5-.73-1-.6a.74.74 0 0 0-.54 1.07m2.83 2.3h1.81c.23 0 .32.06.23.3-.33.86-.64 1.72-.95 2.59 0 .09-.06.2-.18.21s-.16-.11-.19-.2c-.31-.87-.61-1.73-.93-2.59-.08-.22 0-.32.21-.31m-21.62 2.49c.63-1.7 1.25-3.41 1.89-5.11a1.11 1.11 0 0 1 1.12-.78 1.14 1.14 0 0 1 1.12.79 404 404 0 0 1 2.47 6.65c.2.58 0 .93-.63 1.07-.45.1-.71-.07-.9-.62-.35-1-.68-2-1-3l-1-2.85c-.18.1-.17.24-.21.35q-.93 2.73-1.87 5.45c-.21.63-.54.84-1 .69s-.7-.49-.51-1.16c.15-.49.34-1 .52-1.46m8.04-5.15c.1-.54.39-.78.87-.75a.76.76 0 0 1 .73.87v6.9a.79.79 0 0 1-1.2.69.9.9 0 0 1-.43-.92v-6.49a1.5 1.5 0 0 1 0-.3m-4.92 19.37a8.32 8.32 0 1 0 8.32-8.32 8.33 8.33 0 0 0-8.32 8.32m1.47 0a6.85 6.85 0 1 1 6.85 6.85 6.85 6.85 0 0 1-6.85-6.85"/>
        <path class="cls-4" d="M322.08 338.08v-.1a3.9 3.9 0 0 1 .75-1.28 3.16 3.16 0 0 1 2.26-1 4 4 0 0 1 2.64 1.2c.62.57 1.06.86 1.6.3s0-1.37-.59-1.85a6 6 0 0 0-4.22-1.4 5.39 5.39 0 0 0-3.76 2.66 5.5 5.5 0 0 0-.73 2.51s.06 0 .07 0l.06-.11a5.07 5.07 0 0 0 5.09 4.72c2.44 0 4.15-1.78 5.15-4.08 0-.28-.09-.53-.09-.83s-.27-.47-.44-.64a1.14 1.14 0 0 0-.47-.24v.17h-7.29Zm-.12 1h6c-.39 2-1.58 2.18-3 2.18s-2.62-.18-3-2.18"/>
      </g>
      <g style="clip-path:url(#clip-path-2)" class="cls-2">
        <path class="cls-4" d="M52.76 452.38c-2.5-2.85-2.37-6.79.22-10 1.94-2.4 4.6-3.44 7.4-4.29a21.5 21.5 0 0 1 7.5-1 5.2 5.2 0 0 0 1.87-.18c1.57-.5 2-1.68 1-3.1 0 1.72-.6 2.3-2.37 2.2a3.9 3.9 0 0 1-2.7-.91 2 2 0 0 1-.56-2.63 1.73 1.73 0 0 0-1 2.48c.53 1.2.47 1.3-.83 1.43a25.8 25.8 0 0 0-10.93 3 9.93 9.93 0 0 0-4.48 4.77 5.2 5.2 0 0 0 1.2 5.85 13.8 13.8 0 0 0 3.55 2.5l.13-.13M8.24 473.1a76 76 0 0 1 8.83-6.19c4.58-2.67 9.61-4.25 14.62-5.86l1.7-.55v-.14a9.2 9.2 0 0 0-2.4.36 59.2 59.2 0 0 0-12.33 3.43 24.24 24.24 0 0 0-9.13 7.17c-.47.55-.85 1.17-1.28 1.76Zm7.12-12.05c5-1.25 10.09-2.38 15.34-2.21a21.5 21.5 0 0 0-3.84-.58 22.4 22.4 0 0 0-4 .07 15 15 0 0 0-3.88.93 20 20 0 0 0-3.61 1.79"/>
        <path class="cls-4" d="M52.63 452.51c.06.17.18.15.31.1l-.18-.23zM8.27 473.08l-.04-.02.02.04z"/>
        <path class="cls-4" d="M41.3 431.6a1.76 1.76 0 0 0-2.6.48c-.08.12-.17.23-.24.36a1.38 1.38 0 0 1-.83.63.25.25 0 0 1-.31-.06 1.23 1.23 0 0 1-.17-1.4 2.44 2.44 0 0 1 1.08-1.12 4.57 4.57 0 0 1 3.76-.08 2.33 2.33 0 0 1 1.49 2.39 2.1 2.1 0 0 1-1.55 2c-.27.11-.57.19-.85.28a14 14 0 0 0-1.41.4 2.2 2.2 0 0 0-.94 1v.19c.78.92 1.75 1.16 2.63.18.13-.14.22-.33.35-.48s.82-.45 1-.34a1.09 1.09 0 0 1 .18 1.18 3 3 0 0 1-2.67 1.45 4.1 4.1 0 0 1-1.59-.28 2 2 0 0 1-1.54-2.08 2 2 0 0 1 1.53-2l.57-.19a14 14 0 0 0 2-.65 1 1 0 0 0 .07-1.84m3.17-.44c.22.65.48 1.29.74 1.92.6 1.52 1.22 3 1.82 4.55a1.31 1.31 0 0 0 1.23.91 1.24 1.24 0 0 0 1.14-.9c.89-2.05 1.71-4.13 2.55-6.2.1-.25.25-.53.13-.78s-.29-.56-.67-.53a.8.8 0 0 0-.8.63c-.33 1.25-.58 1.53-1.88 1.43-.1 0 0 0 0 0h-1.16a1.63 1.63 0 0 1-1.41-.86c-.08-.21-.13-.43-.2-.65-.16-.53-.49-.74-1-.6a.73.73 0 0 0-.54 1.06m2.83 2.31h1.81c.23 0 .31.05.22.3l-.95 2.58c0 .09-.05.21-.18.21s-.15-.11-.18-.2l-.93-2.59c-.08-.22 0-.32.21-.3M25.6 436q.95-2.57 1.9-5.12a1.13 1.13 0 0 1 1.12-.78 1.12 1.12 0 0 1 1.11.8c.47 1.23.94 2.46 1.4 3.69.36 1 .73 2 1.07 2.95a.73.73 0 0 1-.62 1.07c-.46.11-.72-.06-.91-.62-.34-1-.67-2-1-3l-1-2.85c-.17.09-.17.23-.21.35l-1.86 5.45c-.22.62-.54.83-1 .69s-.7-.49-.51-1.17c.14-.49.34-1 .51-1.45m8.05-5.18c.09-.53.38-.78.87-.74a.77.77 0 0 1 .73.86v6.9a.78.78 0 0 1-1.19.69.9.9 0 0 1-.44-.92v-6.48a1.6 1.6 0 0 1 0-.31M28.7 450.2a8.32 8.32 0 1 0 8.3-8.32 8.33 8.33 0 0 0-8.32 8.32m1.47 0a6.85 6.85 0 1 1 6.85 6.86 6.86 6.86 0 0 1-6.85-6.86m21.51 10.85a35.7 35.7 0 0 0 7.91-2.93 8.65 8.65 0 0 0 3.75-3.26c1.25-2.18.53-4.27-2-5.34 1.39 1.62 1.23 2.71-.46 3.81a31.9 31.9 0 0 1-13.76 4.37c-3.71.3-17.1 6.75-17.1 6.75-9.8 4.53-19.44 13.95-23.8 23.8l-.36.77c.53-.06.58-.49.75-.78 0 0 7.65-12 19.26-18s19.35-8.23 25.77-9.16m1.14-8.7c-2.5-2.85-2.37-6.79.22-10 1.94-2.4 4.6-3.44 7.4-4.29a21.5 21.5 0 0 1 7.5-1 5.2 5.2 0 0 0 1.87-.18c1.57-.5 2-1.68 1-3.1 0 1.72-.6 2.3-2.37 2.2a3.9 3.9 0 0 1-2.7-.91 2 2 0 0 1-.56-2.63 1.73 1.73 0 0 0-1 2.48c.53 1.2.47 1.3-.83 1.43a25.8 25.8 0 0 0-10.93 3 9.93 9.93 0 0 0-4.48 4.77 5.2 5.2 0 0 0 1.2 5.85 13.8 13.8 0 0 0 3.55 2.5l.13-.13m-25.18 1.79a9.93 9.93 0 0 1-4.46-4.79 25.7 25.7 0 0 1-2.32-11.1c0-1.3-.14-1.37-1.37-.93a1.73 1.73 0 0 1-2.43-1.13 2 2 0 0 0 2.66-.38 3.85 3.85 0 0 0 1.08-2.63c.22-1.77-.31-2.41-2-2.52 1.48-.86 2.62-.39 3 1.21a5.1 5.1 0 0 1 .06 1.87 21.3 21.3 0 0 0 .52 7.55s1.21 7.74 5.25 12.85M8.24 473.1a76 76 0 0 1 8.83-6.19c4.58-2.67 9.61-4.25 14.62-5.86l1.7-.55v-.14a9.2 9.2 0 0 0-2.4.36 59.2 59.2 0 0 0-12.33 3.43 24.24 24.24 0 0 0-9.13 7.17c-.47.55-.85 1.17-1.28 1.76Zm7.12-12.05c5-1.25 10.09-2.38 15.34-2.21a21.5 21.5 0 0 0-3.84-.58 22.4 22.4 0 0 0-4 .07 15 15 0 0 0-3.88.93 20 20 0 0 0-3.61 1.79"/>
        <path class="cls-4" d="M52.63 452.51c.06.17.18.15.31.1l-.18-.23zM8.27 473.08l-.04-.02.02.04zM41.3 431.6a1.76 1.76 0 0 0-2.6.48c-.08.12-.17.23-.24.36a1.38 1.38 0 0 1-.83.63.25.25 0 0 1-.31-.06 1.23 1.23 0 0 1-.17-1.4 2.44 2.44 0 0 1 1.08-1.12 4.57 4.57 0 0 1 3.76-.08 2.33 2.33 0 0 1 1.49 2.39 2.1 2.1 0 0 1-1.55 2c-.27.11-.57.19-.85.28a14 14 0 0 0-1.41.4 2.2 2.2 0 0 0-.94 1v.19c.78.92 1.75 1.16 2.63.18.13-.14.22-.33.35-.48s.82-.45 1-.34a1.09 1.09 0 0 1 .18 1.18 3 3 0 0 1-2.67 1.45 4.1 4.1 0 0 1-1.59-.28 2 2 0 0 1-1.54-2.08 2 2 0 0 1 1.53-2l.57-.19a14 14 0 0 0 2-.65 1 1 0 0 0 .07-1.84m3.17-.44c.22.65.48 1.29.74 1.92.6 1.52 1.22 3 1.82 4.55a1.31 1.31 0 0 0 1.23.91 1.24 1.24 0 0 0 1.14-.9c.89-2.05 1.71-4.13 2.55-6.2.1-.25.25-.53.13-.78s-.29-.56-.67-.53a.8.8 0 0 0-.8.63c-.33 1.25-.58 1.53-1.88 1.43-.1 0 0 0 0 0h-1.16a1.63 1.63 0 0 1-1.41-.86c-.08-.21-.13-.43-.2-.65-.16-.53-.49-.74-1-.6a.73.73 0 0 0-.54 1.06m2.83 2.31h1.81c.23 0 .31.05.22.3l-.95 2.58c0 .09-.05.21-.18.21s-.15-.11-.18-.2l-.93-2.59c-.08-.22 0-.32.21-.3M25.6 436q.95-2.57 1.9-5.12a1.13 1.13 0 0 1 1.12-.78 1.12 1.12 0 0 1 1.11.8c.47 1.23.94 2.46 1.4 3.69.36 1 .73 2 1.07 2.95a.73.73 0 0 1-.62 1.07c-.46.11-.72-.06-.91-.62-.34-1-.67-2-1-3l-1-2.85c-.17.09-.17.23-.21.35l-1.86 5.45c-.22.62-.54.83-1 .69s-.7-.49-.51-1.17c.14-.49.34-1 .51-1.45m8.05-5.18c.09-.53.38-.78.87-.74a.77.77 0 0 1 .73.86v6.9a.78.78 0 0 1-1.19.69.9.9 0 0 1-.44-.92v-6.48a1.6 1.6 0 0 1 0-.31M28.7 450.2a8.32 8.32 0 1 0 8.3-8.32 8.33 8.33 0 0 0-8.32 8.32m1.47 0a6.85 6.85 0 1 1 6.85 6.86 6.86 6.86 0 0 1-6.85-6.86"/>
        <path class="cls-4" d="M34.39 449.47v-.1a3.7 3.7 0 0 1 .75-1.29 3.2 3.2 0 0 1 2.26-1 4 4 0 0 1 2.6 1.16c.62.57 1.06.87 1.6.3s0-1.37-.59-1.85a6 6 0 0 0-4.22-1.4A5.5 5.5 0 0 0 33 448a5.6 5.6 0 0 0-.72 2.52s.07 0 .07 0l.06-.11a5.07 5.07 0 0 0 5.1 4.72c2.44 0 4.15-1.77 5.15-4.08 0-.29-.09-.53-.09-.83s-.27-.47-.44-.64a1.1 1.1 0 0 0-.47-.25v.18h-7.27Zm-.12 1h6c-.39 2-1.59 2.18-3 2.18s-2.62-.18-3-2.18"/>
      </g>
      <g style="clip-path:url(#clip-path-3)" class="cls-2">
        <path class="cls-4" d="M60.08 25.22c-2.5-2.85-2.37-6.78.22-10 1.93-2.4 4.6-3.45 7.4-4.3a21.5 21.5 0 0 1 7.5-1 5.2 5.2 0 0 0 1.87-.19c1.57-.5 2-1.67 1-3.1 0 1.73-.6 2.3-2.38 2.2a3.83 3.83 0 0 1-2.69-.9 2 2 0 0 1-.56-2.63 1.73 1.73 0 0 0-1 2.48c.53 1.2.47 1.3-.83 1.43a26 26 0 0 0-10.93 3A10 10 0 0 0 55.23 17a5.19 5.19 0 0 0 1.17 5.83 14 14 0 0 0 3.54 2.5 1 1 0 0 0 .14-.13M15.56 45.94a74 74 0 0 1 8.83-6.18C29 37.08 34 35.51 39 33.9l1.7-.55a.5.5 0 0 0 0-.15 8.8 8.8 0 0 0-2.4.37A59.2 59.2 0 0 0 26 37a24.34 24.34 0 0 0-9.13 7.17c-.47.55-.85 1.18-1.28 1.77Zm7.12-12.05c5-1.25 10.09-2.37 15.34-2.2a20 20 0 0 0-3.84-.58 23.3 23.3 0 0 0-4 .06 14.8 14.8 0 0 0-3.88.93 20.2 20.2 0 0 0-3.61 1.79m37.25-8.53c.07.17.18.15.32.09l-.18-.23a2 2 0 0 1-.14.14"/>
        <path class="cls-4" d="m15.59 45.93-.04-.02.01.03z"/>
        <path class="cls-4" d="M48.62 4.44a1.77 1.77 0 0 0-2.6.48c-.08.12-.17.24-.24.36a1.37 1.37 0 0 1-.84.63.23.23 0 0 1-.3-.06 1.21 1.21 0 0 1-.17-1.39 2.42 2.42 0 0 1 1.08-1.13 4.6 4.6 0 0 1 3.76-.08 2.34 2.34 0 0 1 1.49 2.39 2.12 2.12 0 0 1-1.55 2.05 9 9 0 0 1-.86.27c-.46.13-.94.22-1.4.4a2.26 2.26 0 0 0-.94 1 .14.14 0 0 0 0 .19c.79.92 1.75 1.16 2.64.19.13-.15.22-.34.35-.49s.82-.45 1-.34a1.07 1.07 0 0 1 .17 1.18 3 3 0 0 1-2.66 1.46 4.4 4.4 0 0 1-1.6-.29 2 2 0 0 1-1.55-2.11 2 2 0 0 1 1.54-2l.57-.19a14 14 0 0 0 2-.65 1 1 0 0 0 .07-1.84M51.75 4c.22.65.48 1.29.73 1.93l1.83 4.54a1.3 1.3 0 0 0 1.23.91 1.22 1.22 0 0 0 1.14-.9c.89-2 1.71-4.12 2.54-6.2.1-.25.26-.53.14-.78s-.29-.5-.67-.5a.81.81 0 0 0-.8.63c-.33 1.25-.58 1.53-1.88 1.44-.1 0 0 0 0 0h-1.16a1.62 1.62 0 0 1-1.41-.85c-.08-.22-.13-.44-.2-.66-.16-.53-.49-.74-1-.6A.73.73 0 0 0 51.75 4m2.83 2.31h1.8c.23 0 .32.06.23.3l-1 2.58c0 .09 0 .21-.18.21s-.15-.1-.19-.2c-.3-.86-.61-1.73-.92-2.59-.08-.22 0-.31.21-.3m-21.61 2.5q.94-2.57 1.9-5.12a1.18 1.18 0 0 1 2.23 0c.47 1.23.94 2.46 1.4 3.69.36 1 .73 2 1.07 2.95.2.59 0 .94-.62 1.08s-.72-.07-.91-.63c-.34-1-.67-2-1-3L36 4.94c-.17.09-.17.23-.21.35L34 10.74c-.22.63-.54.84-1 .69s-.69-.49-.5-1.16c.14-.5.33-1 .51-1.46M41 3.68q.14-.81.87-.75c.45 0 .72.33.73.87v6.89a.78.78 0 0 1-1.19.69.9.9 0 0 1-.44-.92V3.98a1.5 1.5 0 0 1 0-.3M36 23.05a8.32 8.32 0 1 0 8.32-8.33A8.33 8.33 0 0 0 36 23.05m1.47 0a6.85 6.85 0 1 1 6.85 6.85 6.86 6.86 0 0 1-6.85-6.85M59 33.9a36.7 36.7 0 0 0 7.89-2.9 8.74 8.74 0 0 0 3.75-3.27c1.25-2.18.53-4.27-2-5.34 1.38 1.62 1.23 2.71-.46 3.81a31.9 31.9 0 0 1-13.75 4.37c-3.71.33-17.06 6.75-17.06 6.75-9.8 4.54-19.44 14-23.8 23.8l-.36.77c.53-.06.58-.49.75-.78 0 0 7.65-12 19.26-18S52.56 34.82 59 33.9m1.08-8.68c-2.5-2.85-2.37-6.78.22-10 1.93-2.4 4.6-3.45 7.4-4.3a21.5 21.5 0 0 1 7.5-1 5.2 5.2 0 0 0 1.87-.19c1.57-.5 2-1.67 1-3.1 0 1.73-.6 2.3-2.38 2.2a3.83 3.83 0 0 1-2.69-.9 2 2 0 0 1-.56-2.63 1.73 1.73 0 0 0-1 2.48c.53 1.2.47 1.3-.83 1.43a26 26 0 0 0-10.93 3A10 10 0 0 0 55.23 17a5.19 5.19 0 0 0 1.17 5.83 14 14 0 0 0 3.54 2.5 1 1 0 0 0 .14-.13M34.9 27a10 10 0 0 1-4.46-4.78 25.8 25.8 0 0 1-2.32-11.11c0-1.3-.14-1.37-1.37-.92a1.73 1.73 0 0 1-2.41-1.14A2 2 0 0 0 27 8.67 3.86 3.86 0 0 0 28.08 6c.22-1.77-.32-2.41-2-2.52 1.49-.85 2.63-.39 3 1.21a5.1 5.1 0 0 1 .06 1.87 21.3 21.3 0 0 0 .52 7.55s1.2 7.78 5.24 12.89M15.56 45.94a74 74 0 0 1 8.83-6.18C29 37.08 34 35.51 39 33.9l1.7-.55a.5.5 0 0 0 0-.15 8.8 8.8 0 0 0-2.4.37A59.2 59.2 0 0 0 26 37a24.34 24.34 0 0 0-9.13 7.17c-.47.55-.85 1.18-1.28 1.77Zm7.12-12.05c5-1.25 10.09-2.37 15.34-2.2a20 20 0 0 0-3.84-.58 23.3 23.3 0 0 0-4 .06 14.8 14.8 0 0 0-3.88.93 20.2 20.2 0 0 0-3.61 1.79m37.25-8.53c.07.17.18.15.32.09l-.18-.23a2 2 0 0 1-.14.14"/>
        <path class="cls-4" d="m15.59 45.93-.04-.02.01.03zM48.62 4.44a1.77 1.77 0 0 0-2.6.48c-.08.12-.17.24-.24.36a1.37 1.37 0 0 1-.84.63.23.23 0 0 1-.3-.06 1.21 1.21 0 0 1-.17-1.39 2.42 2.42 0 0 1 1.08-1.13 4.6 4.6 0 0 1 3.76-.08 2.34 2.34 0 0 1 1.49 2.39 2.12 2.12 0 0 1-1.55 2.05 9 9 0 0 1-.86.27c-.46.13-.94.22-1.4.4a2.26 2.26 0 0 0-.94 1 .14.14 0 0 0 0 .19c.79.92 1.75 1.16 2.64.19.13-.15.22-.34.35-.49s.82-.45 1-.34a1.07 1.07 0 0 1 .17 1.18 3 3 0 0 1-2.66 1.46 4.4 4.4 0 0 1-1.6-.29 2 2 0 0 1-1.55-2.11 2 2 0 0 1 1.54-2l.57-.19a14 14 0 0 0 2-.65 1 1 0 0 0 .07-1.84M51.75 4c.22.65.48 1.29.73 1.93l1.83 4.54a1.3 1.3 0 0 0 1.23.91 1.22 1.22 0 0 0 1.14-.9c.89-2 1.71-4.12 2.54-6.2.1-.25.26-.53.14-.78s-.29-.5-.67-.5a.81.81 0 0 0-.8.63c-.33 1.25-.58 1.53-1.88 1.44-.1 0 0 0 0 0h-1.16a1.62 1.62 0 0 1-1.41-.85c-.08-.22-.13-.44-.2-.66-.16-.53-.49-.74-1-.6A.73.73 0 0 0 51.75 4m2.83 2.31h1.8c.23 0 .32.06.23.3l-1 2.58c0 .09 0 .21-.18.21s-.15-.1-.19-.2c-.3-.86-.61-1.73-.92-2.59-.08-.22 0-.31.21-.3m-21.61 2.5q.94-2.57 1.9-5.12a1.18 1.18 0 0 1 2.23 0c.47 1.23.94 2.46 1.4 3.69.36 1 .73 2 1.07 2.95.2.59 0 .94-.62 1.08s-.72-.07-.91-.63c-.34-1-.67-2-1-3L36 4.94c-.17.09-.17.23-.21.35L34 10.74c-.22.63-.54.84-1 .69s-.69-.49-.5-1.16c.14-.5.33-1 .51-1.46M41 3.68q.14-.81.87-.75c.45 0 .72.33.73.87v6.89a.78.78 0 0 1-1.19.69.9.9 0 0 1-.44-.92V3.98a1.5 1.5 0 0 1 0-.3M36 23.05a8.32 8.32 0 1 0 8.32-8.33A8.33 8.33 0 0 0 36 23.05m1.47 0a6.85 6.85 0 1 1 6.85 6.85 6.86 6.86 0 0 1-6.85-6.85"/>
        <path class="cls-4" d="M41.71 22.31v-.1a3.9 3.9 0 0 1 .74-1.29 3.24 3.24 0 0 1 2.27-1 4 4 0 0 1 2.64 1.19c.62.57 1.06.87 1.6.3s0-1.36-.59-1.85a6 6 0 0 0-4.22-1.4 5.47 5.47 0 0 0-3.77 2.67 5.4 5.4 0 0 0-.72 2.51s.07 0 .07 0 .06-.12.06-.11a5.06 5.06 0 0 0 5.1 4.72c2.44 0 4.15-1.77 5.15-4.08 0-.28-.09-.53-.09-.83s-.27-.47-.44-.64a1.14 1.14 0 0 0-.47-.24v.17h-7.33Zm-.12 1h6c-.39 2-1.59 2.18-3 2.18s-2.62-.18-3-2.18"/>
      </g>
      <g style="clip-path:url(#clip-path-4)" class="cls-2">
        <path class="cls-4" d="M207.12 418c-5-5.76-4.78-13.69.44-20.14 3.9-4.84 9.27-6.94 14.93-8.67a43.6 43.6 0 0 1 15.12-2 10.4 10.4 0 0 0 3.76-.37c3.17-1 3.95-3.38 2-6.25 0 3.48-1.21 4.64-4.8 4.44-2-.11-3.94-.36-5.43-1.84s-2.3-3.17-1.12-5.3a3.48 3.48 0 0 0-2 5c1.06 2.42.94 2.62-1.68 2.87-7.71.75-15.23 2.15-22 6.15-3.95 2.32-7.26 5.26-9 9.61a10.48 10.48 0 0 0 2.37 11.75 28 28 0 0 0 7.15 5l.27-.26m-89.77 41.8a150 150 0 0 1 17.79-12.47c9.24-5.4 19.38-8.57 29.48-11.82l3.44-1.11a2 2 0 0 0 0-.29 18.7 18.7 0 0 0-4.84.74 119.4 119.4 0 0 0-24.87 6.9c-7.45 3.13-13.27 8.36-18.4 14.46-.94 1.12-1.72 2.37-2.58 3.56Zm14.35-24.3c10.13-2.51 20.34-4.79 30.94-4.44a41.3 41.3 0 0 0-7.76-1.17 46.4 46.4 0 0 0-8.08.12 30.3 30.3 0 0 0-7.83 1.89 40 40 0 0 0-7.27 3.6"/>
        <path class="cls-4" d="M206.85 418.28c.12.35.36.31.63.19l-.36-.45zm-89.44 41.48h-.07v.07M184 376.11c-2.25-1.2-4-.9-5.26 1a6 6 0 0 0-.47.72 2.8 2.8 0 0 1-1.69 1.26.47.47 0 0 1-.58-.09 2.49 2.49 0 0 1-.34-2.82 4.92 4.92 0 0 1 2.19-2.27 9.2 9.2 0 0 1 7.57-.16 4.73 4.73 0 0 1 3 4.82c0 2.15-1.25 3.38-3.12 4.13a17 17 0 0 1-1.73.54c-.95.27-1.91.46-2.83.82s-1.37 1.2-1.9 1.94a.28.28 0 0 0 0 .39c1.59 1.86 3.53 2.34 5.31.38.27-.3.45-.67.71-1 .4-.48 1.65-.9 1.95-.69a2.17 2.17 0 0 1 .36 2.38 6 6 0 0 1-5.38 2.94 8.7 8.7 0 0 1-3.21-.58c-2.17-.8-3.09-2.07-3.11-4.19s.9-3.25 3.1-4.09c.37-.14.77-.25 1.15-.38a30 30 0 0 0 4.12-1.32 2.07 2.07 0 0 0 .14-3.71m6.34-.86c.45 1.31 1 2.59 1.48 3.88 1.22 3.05 2.46 6.1 3.68 9.15a2.6 2.6 0 0 0 2.48 1.84 2.46 2.46 0 0 0 2.29-1.8c1.79-4.13 3.43-8.33 5.11-12.5a2.06 2.06 0 0 0 .23-1.59 1.5 1.5 0 0 0-1.44-1.07 1.86 1.86 0 0 0-1.77 1.28c-.65 2.52-1.49 3.09-4.1 2.89h-.66v.07h-1.67a2.36 2.36 0 0 1-2.22-1.71c-.17-.43-.26-.89-.4-1.33-.33-1.07-1-1.48-1.93-1.21a1.48 1.48 0 0 0-1.08 2.15m5.71 4.65h3.64c.61 0 .64.11.46.6-.66 1.74-1.28 3.47-1.92 5.21-.07.19-.11.42-.36.43s-.31-.22-.38-.41c-.62-1.74-1.23-3.48-1.86-5.22-.17-.44-.1-.64.42-.61m-43.67 4.95c1.27-3.44 2.53-6.89 3.82-10.32a2.4 2.4 0 0 1 4.51 0c.95 2.48 1.88 5 2.81 7.46.74 2 1.48 4 2.16 5.94.41 1.18 0 1.89-1.25 2.16-.92.22-1.44-.13-1.83-1.25-.69-2-1.36-4.05-2-6.08l-1.93-5.75c-.35.19-.34.48-.42.71-1.26 3.66-2.5 7.33-3.76 11-.43 1.26-1.09 1.69-2.09 1.39s-1.4-1-1-2.34c.28-1 .67-2 1-2.94m16.2-10.33c.2-1.08.78-1.58 1.76-1.51s1.45.42 1.47 1.49v10.47c0 1.15 0 2.41-.06 3.56a1.61 1.61 0 0 1-2.41 1.46 1.77 1.77 0 0 1-.88-1.82v-13.06a3 3 0 0 1 .06-.59m-9.92 39.06a16.78 16.78 0 1 0 16.78-16.78 16.79 16.79 0 0 0-16.78 16.78m3 0a13.82 13.82 0 1 1 13.82 13.81 13.84 13.84 0 0 1-13.82-13.81m43.3 21.87a73.3 73.3 0 0 0 15.95-5.9c3-1.6 5.81-3.51 7.57-6.59 2.52-4.4 1.05-8.61-4.06-10.76 2.79 3.26 2.48 5.46-.94 7.69a64.1 64.1 0 0 1-27.71 8.8c-7.48.65-34.4 13.62-34.4 13.62-19.76 9.13-39.21 28.12-48 48-.21.49-.44 1-.71 1.56 1.06-.12 1.17-1 1.51-1.56 0 0 15.42-24.23 38.83-36.36s39-16.61 52-18.47"/>
        <path class="cls-4" d="M207.12 418c-5-5.76-4.78-13.69.44-20.14 3.9-4.84 9.27-6.94 14.93-8.67a43.6 43.6 0 0 1 15.12-2 10.4 10.4 0 0 0 3.76-.37c3.17-1 3.95-3.38 2-6.25 0 3.48-1.21 4.64-4.8 4.44-2-.11-3.94-.36-5.43-1.84s-2.3-3.17-1.12-5.3a3.48 3.48 0 0 0-2 5c1.06 2.42.94 2.62-1.68 2.87-7.71.75-15.23 2.15-22 6.15-3.95 2.32-7.26 5.26-9 9.61a10.48 10.48 0 0 0 2.37 11.75 28 28 0 0 0 7.15 5l.27-.26m-50.79 3.62c-4.22-2.07-6.94-5.57-9-9.66-3.54-7.05-4.45-14.65-4.68-22.39-.08-2.63-.28-2.76-2.76-1.86a3.49 3.49 0 0 1-4.86-2.29c2 1.32 3.79.61 5.36-.77s2-3.35 2.19-5.3c.44-3.57-.64-4.86-4.11-5.08 3-1.73 5.3-.79 6.1 2.44a10.4 10.4 0 0 1 .13 3.77 43.4 43.4 0 0 0 1 15.23s2.45 15.6 10.58 25.91m-38.93 38.18a150 150 0 0 1 17.79-12.47c9.24-5.4 19.38-8.57 29.48-11.82l3.44-1.11a2 2 0 0 0 0-.29 18.7 18.7 0 0 0-4.84.74 119.4 119.4 0 0 0-24.87 6.9c-7.45 3.13-13.27 8.36-18.4 14.46-.94 1.12-1.72 2.37-2.58 3.56Zm14.35-24.3c10.13-2.51 20.34-4.79 30.94-4.44a41.3 41.3 0 0 0-7.76-1.17 46.4 46.4 0 0 0-8.08.12 30.3 30.3 0 0 0-7.83 1.89 40 40 0 0 0-7.27 3.6"/>
        <path class="cls-4" d="M206.85 418.28c.12.35.36.31.63.19l-.36-.45zm-89.44 41.48h-.07v.07M184 376.11c-2.25-1.2-4-.9-5.26 1a6 6 0 0 0-.47.72 2.8 2.8 0 0 1-1.69 1.26.47.47 0 0 1-.58-.09 2.49 2.49 0 0 1-.34-2.82 4.92 4.92 0 0 1 2.19-2.27 9.2 9.2 0 0 1 7.57-.16 4.73 4.73 0 0 1 3 4.82c0 2.15-1.25 3.38-3.12 4.13a17 17 0 0 1-1.73.54c-.95.27-1.91.46-2.83.82s-1.37 1.2-1.9 1.94a.28.28 0 0 0 0 .39c1.59 1.86 3.53 2.34 5.31.38.27-.3.45-.67.71-1 .4-.48 1.65-.9 1.95-.69a2.17 2.17 0 0 1 .36 2.38 6 6 0 0 1-5.38 2.94 8.7 8.7 0 0 1-3.21-.58c-2.17-.8-3.09-2.07-3.11-4.19s.9-3.25 3.1-4.09c.37-.14.77-.25 1.15-.38a30 30 0 0 0 4.12-1.32 2.07 2.07 0 0 0 .14-3.71m6.34-.86c.45 1.31 1 2.59 1.48 3.88 1.22 3.05 2.46 6.1 3.68 9.15a2.6 2.6 0 0 0 2.48 1.84 2.46 2.46 0 0 0 2.29-1.8c1.79-4.13 3.43-8.33 5.11-12.5a2.06 2.06 0 0 0 .23-1.59 1.5 1.5 0 0 0-1.44-1.07 1.86 1.86 0 0 0-1.77 1.28c-.65 2.52-1.49 3.09-4.1 2.89h-.66v.07h-1.67a2.36 2.36 0 0 1-2.22-1.71c-.17-.43-.26-.89-.4-1.33-.33-1.07-1-1.48-1.93-1.21a1.48 1.48 0 0 0-1.08 2.15m5.71 4.65h3.64c.61 0 .64.11.46.6-.66 1.74-1.28 3.47-1.92 5.21-.07.19-.11.42-.36.43s-.31-.22-.38-.41c-.62-1.74-1.23-3.48-1.86-5.22-.17-.44-.1-.64.42-.61m-43.67 4.95c1.27-3.44 2.53-6.89 3.82-10.32a2.4 2.4 0 0 1 4.51 0c.95 2.48 1.88 5 2.81 7.46.74 2 1.48 4 2.16 5.94.41 1.18 0 1.89-1.25 2.16-.92.22-1.44-.13-1.83-1.25-.69-2-1.36-4.05-2-6.08l-1.93-5.75c-.35.19-.34.48-.42.71-1.26 3.66-2.5 7.33-3.76 11-.43 1.26-1.09 1.69-2.09 1.39s-1.4-1-1-2.34c.28-1 .67-2 1-2.94m16.2-10.33c.2-1.08.78-1.58 1.76-1.51s1.45.42 1.47 1.49v10.47c0 1.15 0 2.41-.06 3.56a1.61 1.61 0 0 1-2.41 1.46 1.77 1.77 0 0 1-.88-1.82v-13.06a3 3 0 0 1 .06-.59m-9.92 39.06a16.78 16.78 0 1 0 16.78-16.78 16.79 16.79 0 0 0-16.78 16.78m3 0a13.82 13.82 0 1 1 13.82 13.81 13.84 13.84 0 0 1-13.82-13.81"/>
        <path class="cls-4" d="m170.07 411.37-.06.18a7.1 7.1 0 0 1 1.51-2.21 6.42 6.42 0 0 1 4.57-2.09 8 8 0 0 1 5.32 2.4c1.25 1.15 2.14 1.73 3.22.59s0-2.8-1.18-3.76-4.53-3.35-8.52-2.9a10.86 10.86 0 0 0-7.59 5.23 9.8 9.8 0 0 0-1.46 4.78v.37a10 10 0 0 0 10 9.52 10.11 10.11 0 0 0 9.8-8.23c0-.57.22-1.17.22-1.77a2 2 0 0 0-1.79-2.1h-14Zm-.24 3h12.09a5.81 5.81 0 0 1-6 4.4c-2.9 0-5.28-1.4-6-4.4"/>
      </g>
      <g style="clip-path:url(#clip-path-5)" class="cls-2">
        <path class="cls-4" d="M94.53 283c-5-5.75-4.78-13.68.43-20.14 3.91-4.83 9.28-6.94 14.94-8.66a43.3 43.3 0 0 1 15.12-2 10.2 10.2 0 0 0 3.75-.38c3.17-1 4-3.38 2-6.24 0 3.47-1.2 4.64-4.79 4.43-2-.11-3.94-.36-5.43-1.84s-2.31-3.16-1.13-5.29a3.49 3.49 0 0 0-2 5c1.06 2.41.94 2.62-1.67 2.87-7.71.74-15.24 2.15-22 6.15-4 2.31-7.26 5.26-9 9.61a10.47 10.47 0 0 0 2.37 11.75 28 28 0 0 0 7.14 5.05l.28-.27M4.76 324.81a151.6 151.6 0 0 1 17.8-12.48c9.24-5.39 19.37-8.56 29.47-11.81l3.44-1.11v-.3a18.6 18.6 0 0 0-4.83.74 119.7 119.7 0 0 0-24.87 6.9c-7.46 3.13-13.28 8.37-18.4 14.46-.94 1.12-1.73 2.38-2.58 3.57Zm14.35-24.31c10.14-2.51 20.34-4.78 30.94-4.44a43 43 0 0 0-7.76-1.17 46.4 46.4 0 0 0-8.08.13 30.7 30.7 0 0 0-7.83 1.88 41 41 0 0 0-7.27 3.6"/>
        <path class="cls-4" d="M94.25 283.3c.13.34.37.3.63.19l-.35-.46zM4.82 324.78h-.08v.08h.05m66.63-83.74c-2.24-1.19-4-.89-5.25 1a6 6 0 0 0-.47.73 2.86 2.86 0 0 1-1.7 1.26.47.47 0 0 1-.61-.12 2.49 2.49 0 0 1-.35-2.81 5 5 0 0 1 2.19-2.27 9.28 9.28 0 0 1 7.58-.17 4.73 4.73 0 0 1 3 4.82c0 2.16-1.25 3.39-3.12 4.13-.56.22-1.15.38-1.73.55-.94.27-1.91.45-2.83.81s-1.37 1.2-1.9 1.95a.28.28 0 0 0 0 .38c1.59 1.86 3.53 2.34 5.31.38.27-.29.46-.66.72-1 .4-.48 1.64-.91 1.94-.69a2.13 2.13 0 0 1 .36 2.37 6 6 0 0 1-5.37 2.94 8.5 8.5 0 0 1-3.22-.58c-2.17-.8-3.08-2.06-3.1-4.19s.9-3.25 3.09-4.08c.38-.15.77-.26 1.15-.39a28 28 0 0 0 4.12-1.31 2.07 2.07 0 0 0 .14-3.72m6.35-.83c.45 1.31 1 2.6 1.48 3.88 1.22 3.06 2.46 6.11 3.68 9.16a2.64 2.64 0 0 0 2.48 1.84 2.49 2.49 0 0 0 2.3-1.81c1.79-4.13 3.42-8.32 5.1-12.5a2 2 0 0 0 .24-1.58 1.5 1.5 0 0 0-1.44-1.07 1.85 1.85 0 0 0-1.77 1.28c-.66 2.51-1.49 3.09-4.11 2.89-.2 0-.66 0-.66-.05v.07h-1.67a2.38 2.38 0 0 1-2.22-1.72c-.16-.43-.26-.88-.4-1.32-.33-1.07-1-1.48-1.92-1.21a1.48 1.48 0 0 0-1.09 2.14m5.71 4.66h3.64c.6 0 .65.11.46.6-.65 1.73-1.28 3.47-1.92 5.21-.07.18-.1.41-.36.43s-.31-.22-.37-.41c-.63-1.74-1.24-3.49-1.87-5.22-.16-.45-.09-.64.42-.61m-43.66 4.99c1.26-3.44 2.52-6.88 3.81-10.31a2.39 2.39 0 0 1 4.51 0q1.42 3.72 2.81 7.45c.74 2 1.48 4 2.17 6 .4 1.17 0 1.88-1.26 2.16-.92.21-1.44-.13-1.82-1.25-.69-2-1.36-4.06-2-6.08s-1.29-3.82-1.94-5.75c-.35.19-.34.48-.42.71l-3.75 11c-.44 1.27-1.1 1.69-2.09 1.4s-1.4-1-1-2.35c.29-1 .68-2 1-2.94M56 239.59c.2-1.09.78-1.58 1.76-1.51s1.46.41 1.48 1.48v6.82h.05v3.66c0 1.15 0 2.41-.06 3.56a1.61 1.61 0 0 1-2.4 1.46 1.79 1.79 0 0 1-.89-1.82v-13.06a4 4 0 0 1 0-.59M46 278.64a16.78 16.78 0 1 0 16.78-16.78A16.8 16.8 0 0 0 46 278.64m3 0a13.82 13.82 0 1 1 13.81 13.82A13.82 13.82 0 0 1 49 278.64m43.31 21.88a73.5 73.5 0 0 0 15.94-5.91c3-1.6 5.81-3.5 7.57-6.58 2.52-4.4 1.06-8.61-4-10.77 2.79 3.26 2.48 5.46-.94 7.69a64.2 64.2 0 0 1-27.71 8.81c-7.49.65-34.41 13.61-34.41 13.61-19.76 9.14-39.2 28.13-48 48-.22.48-.45 1-.72 1.56 1.06-.13 1.17-1 1.52-1.57 0 0 15.42-24.22 38.82-36.35s39-16.61 52-18.47"/>
        <path class="cls-4" d="M94.53 283c-5-5.75-4.78-13.68.43-20.14 3.91-4.83 9.28-6.94 14.94-8.66a43.3 43.3 0 0 1 15.12-2 10.2 10.2 0 0 0 3.75-.38c3.17-1 4-3.38 2-6.24 0 3.47-1.2 4.64-4.79 4.43-2-.11-3.94-.36-5.43-1.84s-2.31-3.16-1.13-5.29a3.49 3.49 0 0 0-2 5c1.06 2.41.94 2.62-1.67 2.87-7.71.74-15.24 2.15-22 6.15-4 2.31-7.26 5.26-9 9.61a10.47 10.47 0 0 0 2.37 11.75 28 28 0 0 0 7.14 5.05l.28-.27m-50.79 3.58c-4.22-2.07-6.94-5.56-9-9.65-3.53-7.05-4.44-14.65-4.68-22.4-.08-2.62-.27-2.76-2.75-1.86a3.49 3.49 0 0 1-4.87-2.28c2.06 1.32 3.79.6 5.36-.78s2-3.34 2.2-5.29c.44-3.57-.64-4.86-4.11-5.08 3-1.73 5.3-.79 6.09 2.44a10.2 10.2 0 0 1 .13 3.77 43.3 43.3 0 0 0 1 15.22s2.45 15.6 10.59 25.91M4.76 324.81a151.6 151.6 0 0 1 17.8-12.48c9.24-5.39 19.37-8.56 29.47-11.81l3.44-1.11v-.3a18.6 18.6 0 0 0-4.83.74 119.7 119.7 0 0 0-24.87 6.9c-7.46 3.13-13.28 8.37-18.4 14.46-.94 1.12-1.73 2.38-2.58 3.57Zm14.35-24.31c10.14-2.51 20.34-4.78 30.94-4.44a43 43 0 0 0-7.76-1.17 46.4 46.4 0 0 0-8.08.13 30.7 30.7 0 0 0-7.83 1.88 41 41 0 0 0-7.27 3.6"/>
        <path class="cls-4" d="M94.25 283.3c.13.34.37.3.63.19l-.35-.46zM4.82 324.78h-.08v.08h.05m66.63-83.74c-2.24-1.19-4-.89-5.25 1a6 6 0 0 0-.47.73 2.86 2.86 0 0 1-1.7 1.26.47.47 0 0 1-.61-.12 2.49 2.49 0 0 1-.35-2.81 5 5 0 0 1 2.19-2.27 9.28 9.28 0 0 1 7.58-.17 4.73 4.73 0 0 1 3 4.82c0 2.16-1.25 3.39-3.12 4.13-.56.22-1.15.38-1.73.55-.94.27-1.91.45-2.83.81s-1.37 1.2-1.9 1.95a.28.28 0 0 0 0 .38c1.59 1.86 3.53 2.34 5.31.38.27-.29.46-.66.72-1 .4-.48 1.64-.91 1.94-.69a2.13 2.13 0 0 1 .36 2.37 6 6 0 0 1-5.37 2.94 8.5 8.5 0 0 1-3.22-.58c-2.17-.8-3.08-2.06-3.1-4.19s.9-3.25 3.09-4.08c.38-.15.77-.26 1.15-.39a28 28 0 0 0 4.12-1.31 2.07 2.07 0 0 0 .14-3.72m6.35-.83c.45 1.31 1 2.6 1.48 3.88 1.22 3.06 2.46 6.11 3.68 9.16a2.64 2.64 0 0 0 2.48 1.84 2.49 2.49 0 0 0 2.3-1.81c1.79-4.13 3.42-8.32 5.1-12.5a2 2 0 0 0 .24-1.58 1.5 1.5 0 0 0-1.44-1.07 1.85 1.85 0 0 0-1.77 1.28c-.66 2.51-1.49 3.09-4.11 2.89-.2 0-.66 0-.66-.05v.07h-1.67a2.38 2.38 0 0 1-2.22-1.72c-.16-.43-.26-.88-.4-1.32-.33-1.07-1-1.48-1.92-1.21a1.48 1.48 0 0 0-1.09 2.14m5.71 4.66h3.64c.6 0 .65.11.46.6-.65 1.73-1.28 3.47-1.92 5.21-.07.18-.1.41-.36.43s-.31-.22-.37-.41c-.63-1.74-1.24-3.49-1.87-5.22-.16-.45-.09-.64.42-.61m-43.66 4.99c1.26-3.44 2.52-6.88 3.81-10.31a2.39 2.39 0 0 1 4.51 0q1.42 3.72 2.81 7.45c.74 2 1.48 4 2.17 6 .4 1.17 0 1.88-1.26 2.16-.92.21-1.44-.13-1.82-1.25-.69-2-1.36-4.06-2-6.08s-1.29-3.82-1.94-5.75c-.35.19-.34.48-.42.71l-3.75 11c-.44 1.27-1.1 1.69-2.09 1.4s-1.4-1-1-2.35c.29-1 .68-2 1-2.94M56 239.59c.2-1.09.78-1.58 1.76-1.51s1.46.41 1.48 1.48v6.82h.05v3.66c0 1.15 0 2.41-.06 3.56a1.61 1.61 0 0 1-2.4 1.46 1.79 1.79 0 0 1-.89-1.82v-13.06a4 4 0 0 1 0-.59M46 278.64a16.78 16.78 0 1 0 16.78-16.78A16.8 16.8 0 0 0 46 278.64m3 0a13.82 13.82 0 1 1 13.81 13.82A13.82 13.82 0 0 1 49 278.64"/>
        <path class="cls-4" d="m57.48 276.38-.06.18a6.8 6.8 0 0 1 1.5-2.2 6.45 6.45 0 0 1 4.57-2.1 8 8 0 0 1 5.33 2.41c1.25 1.15 2.13 1.72 3.21.59s0-2.8-1.18-3.77-4.52-3.34-8.51-2.89-6.79 3.73-7.59 5.22a9.8 9.8 0 0 0-1.47 4.78v.38a9.93 9.93 0 0 0 10 9.51 10.11 10.11 0 0 0 9.8-8.22c0-.57.22-1.18.22-1.78a2 2 0 0 0-1.8-2.1h-14Zm-.25 3h12.09a5.81 5.81 0 0 1-6 4.4c-2.91 0-5.29-1.4-6.06-4.4"/>
      </g>
      <g style="clip-path:url(#clip-path-6)" class="cls-2">
        <path class="cls-4" d="M263.21 254.1c-6.42-7.33-6.09-17.43.55-25.64 5-6.16 11.81-8.84 19-11a55.3 55.3 0 0 1 19.24-2.63 13.4 13.4 0 0 0 4.79-.48c4-1.29 5-4.3 2.58-7.95 0 4.42-1.53 5.9-6.1 5.65-2.5-.15-5-.46-6.91-2.35s-2.94-4-1.44-6.74c-2.77 1.16-3.7 3.62-2.49 6.37 1.35 3.07 1.19 3.33-2.14 3.65-9.81 1-19.4 2.74-28.05 7.83-5 2.95-9.24 6.69-11.52 12.23a13.35 13.35 0 0 0 3 15 35.6 35.6 0 0 0 9.1 6.42l.35-.33m-114.24 53.15a192 192 0 0 1 22.65-15.88c11.77-6.87 24.66-10.91 37.53-15l4.37-1.41v-.38c-2.13-.16-4.13.57-6.15.94-10.81 2-21.49 4.52-31.66 8.79-9.5 4-16.9 10.64-23.43 18.4-1.2 1.43-2.19 3-3.28 4.54Zm18.26-30.94c12.91-3.2 25.9-6.09 39.39-5.66a53.5 53.5 0 0 0-9.87-1.48 59 59 0 0 0-10.29.16 39 39 0 0 0-10 2.39 52 52 0 0 0-9.26 4.59"/>
        <path class="cls-4" d="M262.86 254.43c.16.44.46.39.8.24l-.45-.57zM149 307.24l-.1-.05v.09h.07m84.82-106.54c-2.85-1.52-5-1.14-6.69 1.25a8 8 0 0 0-.6.92 3.55 3.55 0 0 1-2.15 1.6.6.6 0 0 1-.78-.14 3.15 3.15 0 0 1-.44-3.59 6.33 6.33 0 0 1 2.78-2.89 11.8 11.8 0 0 1 9.65-.2c2.66 1.09 3.85 3.27 3.83 6.13s-1.6 4.31-4 5.26c-.71.28-1.46.48-2.2.69-1.2.35-2.43.59-3.6 1s-1.75 1.53-2.42 2.48c-.13.18-.07.33.06.49 2 2.36 4.5 3 6.76.48.34-.38.58-.85.91-1.24.51-.61 2.09-1.15 2.47-.88a2.74 2.74 0 0 1 .46 3 7.61 7.61 0 0 1-6.84 3.74 11 11 0 0 1-4.09-.74c-2.76-1-3.93-2.63-4-5.33s1.15-4.14 3.95-5.21c.48-.18 1-.32 1.46-.48 1.74-.6 3.6-.82 5.24-1.68a2.64 2.64 0 0 0 .18-4.73m8.08-1c.57 1.67 1.24 3.3 1.89 4.94 1.55 3.89 3.13 7.77 4.69 11.66a3.32 3.32 0 0 0 3.15 2.34c1.49 0 2.35-1 2.92-2.3 2.28-5.26 4.36-10.6 6.5-15.91a2.57 2.57 0 0 0 .3-2 1.9 1.9 0 0 0-1.83-1.36 2.34 2.34 0 0 0-2.25 1.63c-.84 3.2-1.9 3.93-5.23 3.67h-.84v.09h-2.13a3 3 0 0 1-2.82-2.18c-.21-.55-.34-1.13-.51-1.69-.42-1.36-1.26-1.89-2.46-1.54a1.88 1.88 0 0 0-1.38 2.73m7.27 5.92h4.64c.59 0 .82.14.58.76-.83 2.21-1.63 4.42-2.44 6.63-.09.24-.14.53-.46.55s-.39-.28-.48-.52c-.79-2.22-1.57-4.44-2.38-6.65-.2-.56-.11-.81.54-.78M193.49 212q2.41-6.57 4.86-13.13a3 3 0 0 1 5.74 0q1.82 4.74 3.58 9.49c.94 2.52 1.88 5 2.76 7.57.51 1.5-.07 2.4-1.6 2.76-1.18.26-1.84-.17-2.33-1.6-.88-2.58-1.73-5.16-2.59-7.74l-2.47-7.35c-.44.24-.43.61-.53.91-1.6 4.66-3.18 9.32-4.79 14-.55 1.61-1.38 2.15-2.65 1.78s-1.79-1.27-1.3-3c.37-1.27.86-2.5 1.32-3.75m20.65-13.16c.25-1.37 1-2 2.23-1.92s1.86.53 1.88 1.89c.05 3 0 6.14 0 8.69h.07v4.65c0 1.47 0 3.07-.08 4.53a2 2 0 0 1-3.06 1.86 2.26 2.26 0 0 1-1.13-2.31v-16.64a4 4 0 0 1 .08-.75m-12.7 49.73a21.36 21.36 0 1 0 21.36-21.36 21.39 21.39 0 0 0-21.36 21.36m3.77 0a17.59 17.59 0 1 1 17.59 17.59 17.61 17.61 0 0 1-17.59-17.59m55.18 27.85a93.6 93.6 0 0 0 20.31-7.52c3.85-2 7.39-4.46 9.63-8.38 3.2-5.61 1.34-11-5.17-13.71 3.56 4.15 3.17 6.95-1.19 9.79 0 0-14.06 9.37-35.28 11.21-9.53.83-43.8 17.33-43.8 17.33-25.15 11.64-49.91 35.81-61.1 61.08-.28.62-.57 1.23-.92 2 1.35-.16 1.49-1.27 1.93-2 0 0 19.64-30.83 49.43-46.28s49.67-21.15 66.16-23.51"/>
        <path class="cls-4" d="M263.21 254.1c-6.42-7.33-6.09-17.43.55-25.64 5-6.16 11.81-8.84 19-11a55.3 55.3 0 0 1 19.24-2.63 13.4 13.4 0 0 0 4.79-.48c4-1.29 5-4.3 2.58-7.95 0 4.42-1.53 5.9-6.1 5.65-2.5-.15-5-.46-6.91-2.35s-2.94-4-1.44-6.74c-2.77 1.16-3.7 3.62-2.49 6.37 1.35 3.07 1.19 3.33-2.14 3.65-9.81 1-19.4 2.74-28.05 7.83-5 2.95-9.24 6.69-11.52 12.23a13.35 13.35 0 0 0 3 15 35.6 35.6 0 0 0 9.1 6.42l.35-.33m-64.61 4.54c-5.38-2.64-8.84-7.09-11.45-12.29-4.51-9-5.66-18.66-6-28.51-.1-3.35-.35-3.52-3.51-2.38-2.82 1-5.22-.06-6.19-2.9 2.61 1.68 4.83.77 6.82-1s2.49-4.26 2.8-6.74c.56-4.54-.82-6.19-5.24-6.47 3.81-2.2 6.75-1 7.77 3.11a13.4 13.4 0 0 1 .16 4.8 55.2 55.2 0 0 0 1.32 19.38s3.12 19.86 13.48 33m-49.59 48.61a192 192 0 0 1 22.65-15.88c11.77-6.87 24.66-10.91 37.53-15l4.37-1.41v-.38c-2.13-.16-4.13.57-6.15.94-10.81 2-21.49 4.52-31.66 8.79-9.5 4-16.9 10.64-23.43 18.4-1.2 1.43-2.19 3-3.28 4.54Zm18.26-30.94c12.91-3.2 25.9-6.09 39.39-5.66a53.5 53.5 0 0 0-9.87-1.48 59 59 0 0 0-10.29.16 39 39 0 0 0-10 2.39 52 52 0 0 0-9.26 4.59"/>
        <path class="cls-4" d="M262.86 254.43c.16.44.46.39.8.24l-.45-.57zM149 307.24l-.1-.05v.09h.07m84.82-106.54c-2.85-1.52-5-1.14-6.69 1.25a8 8 0 0 0-.6.92 3.55 3.55 0 0 1-2.15 1.6.6.6 0 0 1-.78-.14 3.15 3.15 0 0 1-.44-3.59 6.33 6.33 0 0 1 2.78-2.89 11.8 11.8 0 0 1 9.65-.2c2.66 1.09 3.85 3.27 3.83 6.13s-1.6 4.31-4 5.26c-.71.28-1.46.48-2.2.69-1.2.35-2.43.59-3.6 1s-1.75 1.53-2.42 2.48c-.13.18-.07.33.06.49 2 2.36 4.5 3 6.76.48.34-.38.58-.85.91-1.24.51-.61 2.09-1.15 2.47-.88a2.74 2.74 0 0 1 .46 3 7.61 7.61 0 0 1-6.84 3.74 11 11 0 0 1-4.09-.74c-2.76-1-3.93-2.63-4-5.33s1.15-4.14 3.95-5.21c.48-.18 1-.32 1.46-.48 1.74-.6 3.6-.82 5.24-1.68a2.64 2.64 0 0 0 .18-4.73m8.08-1c.57 1.67 1.24 3.3 1.89 4.94 1.55 3.89 3.13 7.77 4.69 11.66a3.32 3.32 0 0 0 3.15 2.34c1.49 0 2.35-1 2.92-2.3 2.28-5.26 4.36-10.6 6.5-15.91a2.57 2.57 0 0 0 .3-2 1.9 1.9 0 0 0-1.83-1.36 2.34 2.34 0 0 0-2.25 1.63c-.84 3.2-1.9 3.93-5.23 3.67h-.84v.09h-2.13a3 3 0 0 1-2.82-2.18c-.21-.55-.34-1.13-.51-1.69-.42-1.36-1.26-1.89-2.46-1.54a1.88 1.88 0 0 0-1.38 2.73m7.27 5.92h4.64c.59 0 .82.14.58.76-.83 2.21-1.63 4.42-2.44 6.63-.09.24-.14.53-.46.55s-.39-.28-.48-.52c-.79-2.22-1.57-4.44-2.38-6.65-.2-.56-.11-.81.54-.78M193.49 212q2.41-6.57 4.86-13.13a3 3 0 0 1 5.74 0q1.82 4.74 3.58 9.49c.94 2.52 1.88 5 2.76 7.57.51 1.5-.07 2.4-1.6 2.76-1.18.26-1.84-.17-2.33-1.6-.88-2.58-1.73-5.16-2.59-7.74l-2.47-7.35c-.44.24-.43.61-.53.91-1.6 4.66-3.18 9.32-4.79 14-.55 1.61-1.38 2.15-2.65 1.78s-1.79-1.27-1.3-3c.37-1.27.86-2.5 1.32-3.75m20.65-13.16c.25-1.37 1-2 2.23-1.92s1.86.53 1.88 1.89c.05 3 0 6.14 0 8.69h.07v4.65c0 1.47 0 3.07-.08 4.53a2 2 0 0 1-3.06 1.86 2.26 2.26 0 0 1-1.13-2.31v-16.64a4 4 0 0 1 .08-.75m-12.7 49.73a21.36 21.36 0 1 0 21.36-21.36 21.39 21.39 0 0 0-21.36 21.36m3.77 0a17.59 17.59 0 1 1 17.59 17.59 17.61 17.61 0 0 1-17.59-17.59"/>
        <path class="cls-4" d="m216 245.63-.08.23a9.1 9.1 0 0 1 1.92-2.81 8.17 8.17 0 0 1 5.81-2.66 10.24 10.24 0 0 1 6.79 3.05c1.59 1.47 2.71 2.21 4.09.76s0-3.56-1.5-4.8-5.76-4.26-10.84-3.68-8.65 4.75-9.67 6.65a12.57 12.57 0 0 0-1.86 6.09v.48a12.66 12.66 0 0 0 12.71 12.11 12.86 12.86 0 0 0 12.47-10.47c0-.72.29-1.49.29-2.26a2.58 2.58 0 0 0-.62-1.78 2.64 2.64 0 0 0-1.67-.89H216Zm-.31 3.82h15.39c-1 3.82-4.08 5.6-7.69 5.6s-6.73-1.78-7.7-5.6"/>
      </g>
      <g style="clip-path:url(#clip-path-7)" class="cls-2">
        <path class="cls-4" d="M459.7 417.83c-5-5.76-4.77-13.68.44-20.14 3.91-4.84 9.27-6.94 14.93-8.67a43.6 43.6 0 0 1 15.12-2 10.4 10.4 0 0 0 3.76-.37c3.17-1 3.95-3.38 2-6.24 0 3.47-1.21 4.63-4.79 4.43-2-.11-3.94-.36-5.43-1.84s-2.31-3.16-1.13-5.3a3.49 3.49 0 0 0-2 5c1.06 2.41.94 2.62-1.67 2.87-7.72.74-15.24 2.15-22 6.14-3.95 2.32-7.26 5.26-9 9.61a10.46 10.46 0 0 0 2.37 11.76 28.3 28.3 0 0 0 7.14 5.05Zm-89.76 41.78a150.4 150.4 0 0 1 17.8-12.48c9.24-5.39 19.37-8.57 29.47-11.81l3.44-1.11v-.3a18.7 18.7 0 0 0-4.84.74 119.7 119.7 0 0 0-24.86 6.9c-7.46 3.13-13.28 8.37-18.4 14.46-.95 1.12-1.73 2.37-2.58 3.57Zm14.35-24.31c10.14-2.51 20.34-4.78 30.94-4.44a43 43 0 0 0-7.76-1.17 46.4 46.4 0 0 0-8.08.13 30.2 30.2 0 0 0-7.83 1.88 41 41 0 0 0-7.27 3.6"/>
        <path class="cls-4" d="M459.43 418.1c.13.34.36.3.63.18l-.36-.45zM370 459.58l-.08-.05v.08h.05m66.63-83.69c-2.24-1.19-4-.9-5.25 1a5 5 0 0 0-.47.72 2.8 2.8 0 0 1-1.7 1.26.46.46 0 0 1-.61-.11 2.47 2.47 0 0 1-.35-2.81 4.92 4.92 0 0 1 2.19-2.27 9.28 9.28 0 0 1 7.58-.17 4.74 4.74 0 0 1 3 4.82c0 2.16-1.25 3.39-3.12 4.13-.56.22-1.15.38-1.73.55-.94.27-1.91.45-2.83.81s-1.37 1.2-1.9 1.95a.28.28 0 0 0 0 .38c1.59 1.86 3.53 2.34 5.31.38.27-.29.46-.67.71-1 .4-.47 1.65-.9 1.95-.69a2.15 2.15 0 0 1 .36 2.38 6 6 0 0 1-5.37 2.94 8.5 8.5 0 0 1-3.22-.58c-2.17-.8-3.09-2.06-3.1-4.19s.9-3.25 3.09-4.09c.38-.14.77-.25 1.15-.38a28 28 0 0 0 4.12-1.31 2.08 2.08 0 0 0 .14-3.72m6.35-.84c.45 1.31 1 2.6 1.48 3.88 1.22 3.06 2.46 6.1 3.68 9.16a2.64 2.64 0 0 0 2.48 1.84 2.48 2.48 0 0 0 2.29-1.81c1.8-4.13 3.43-8.32 5.11-12.5a2.05 2.05 0 0 0 .24-1.59 1.51 1.51 0 0 0-1.44-1.06 1.84 1.84 0 0 0-1.77 1.28c-.66 2.51-1.49 3.08-4.11 2.89-.2 0-.66 0-.66-.05v.07h-1.67a2.39 2.39 0 0 1-2.22-1.72c-.16-.43-.26-.88-.4-1.32-.33-1.07-1-1.49-1.92-1.22a1.49 1.49 0 0 0-1.09 2.15m5.71 4.65h3.64c.47 0 .64.11.46.6-.65 1.73-1.28 3.47-1.92 5.2-.07.19-.1.42-.36.43s-.31-.21-.37-.4c-.63-1.74-1.24-3.49-1.87-5.23-.16-.44-.09-.63.42-.61m-43.67 5.01c1.27-3.44 2.53-6.88 3.82-10.31a2.39 2.39 0 0 1 4.51 0c1 2.48 1.88 5 2.81 7.45.74 2 1.48 4 2.17 5.94.4 1.18-.05 1.89-1.26 2.17-.92.21-1.44-.13-1.83-1.26-.69-2-1.35-4.05-2-6.08s-1.29-3.82-1.94-5.74c-.35.18-.34.47-.42.71q-1.87 5.49-3.76 11c-.43 1.27-1.09 1.69-2.08 1.4s-1.41-1-1-2.35c.28-1 .67-2 1-2.94m16.2-10.34c.2-1.08.78-1.57 1.76-1.51s1.46.42 1.47 1.49v10.48c0 1.16 0 2.41-.06 3.56a1.61 1.61 0 0 1-2.4 1.45 1.75 1.75 0 0 1-.89-1.81v-13.07a4 4 0 0 1 .06-.59m-9.92 39.06A16.78 16.78 0 1 0 428 396.66a16.8 16.8 0 0 0-16.78 16.78m3 0A13.82 13.82 0 1 1 428 427.26a13.84 13.84 0 0 1-13.82-13.82m43.3 21.88a73.4 73.4 0 0 0 15.95-5.91c3-1.6 5.81-3.5 7.57-6.58 2.52-4.4 1.06-8.61-4.06-10.77 2.79 3.26 2.49 5.46-.93 7.69a64.24 64.24 0 0 1-27.71 8.81c-7.49.65-34.41 13.61-34.41 13.61-19.76 9.14-39.2 28.13-48 48-.21.48-.44 1-.71 1.56 1.06-.13 1.17-1 1.51-1.57 0 0 15.43-24.22 38.83-36.35s39-16.61 52-18.47"/>
        <path class="cls-4" d="M459.7 417.83c-5-5.76-4.77-13.68.44-20.14 3.91-4.84 9.27-6.94 14.93-8.67a43.6 43.6 0 0 1 15.12-2 10.4 10.4 0 0 0 3.76-.37c3.17-1 3.95-3.38 2-6.24 0 3.47-1.21 4.63-4.79 4.43-2-.11-3.94-.36-5.43-1.84s-2.31-3.16-1.13-5.3a3.49 3.49 0 0 0-2 5c1.06 2.41.94 2.62-1.67 2.87-7.72.74-15.24 2.15-22 6.14-3.95 2.32-7.26 5.26-9 9.61a10.46 10.46 0 0 0 2.37 11.76 28.3 28.3 0 0 0 7.14 5.05Zm-50.77 3.59c-4.23-2.07-6.94-5.56-9-9.65-3.54-7-4.45-14.65-4.68-22.4-.08-2.62-.28-2.76-2.75-1.86a3.5 3.5 0 0 1-4.87-2.28c2.06 1.32 3.79.6 5.36-.78s2-3.34 2.2-5.29c.44-3.57-.65-4.86-4.11-5.08 3-1.73 5.3-.79 6.09 2.43a10.5 10.5 0 0 1 .13 3.78 43.3 43.3 0 0 0 1 15.22s2.45 15.6 10.59 25.91m-38.95 38.19a150.4 150.4 0 0 1 17.8-12.48c9.24-5.39 19.37-8.57 29.47-11.81l3.44-1.11v-.3a18.7 18.7 0 0 0-4.84.74 119.7 119.7 0 0 0-24.86 6.9c-7.46 3.13-13.28 8.37-18.4 14.46-.95 1.12-1.73 2.37-2.58 3.57Zm14.35-24.31c10.14-2.51 20.34-4.78 30.94-4.44a43 43 0 0 0-7.76-1.17 46.4 46.4 0 0 0-8.08.13 30.2 30.2 0 0 0-7.83 1.88 41 41 0 0 0-7.27 3.6"/>
        <path class="cls-4" d="M459.43 418.1c.13.34.36.3.63.18l-.36-.45zM370 459.58l-.08-.05v.08h.05m66.63-83.69c-2.24-1.19-4-.9-5.25 1a5 5 0 0 0-.47.72 2.8 2.8 0 0 1-1.7 1.26.46.46 0 0 1-.61-.11 2.47 2.47 0 0 1-.35-2.81 4.92 4.92 0 0 1 2.19-2.27 9.28 9.28 0 0 1 7.58-.17 4.74 4.74 0 0 1 3 4.82c0 2.16-1.25 3.39-3.12 4.13-.56.22-1.15.38-1.73.55-.94.27-1.91.45-2.83.81s-1.37 1.2-1.9 1.95a.28.28 0 0 0 0 .38c1.59 1.86 3.53 2.34 5.31.38.27-.29.46-.67.71-1 .4-.47 1.65-.9 1.95-.69a2.15 2.15 0 0 1 .36 2.38 6 6 0 0 1-5.37 2.94 8.5 8.5 0 0 1-3.22-.58c-2.17-.8-3.09-2.06-3.1-4.19s.9-3.25 3.09-4.09c.38-.14.77-.25 1.15-.38a28 28 0 0 0 4.12-1.31 2.08 2.08 0 0 0 .14-3.72m6.35-.84c.45 1.31 1 2.6 1.48 3.88 1.22 3.06 2.46 6.1 3.68 9.16a2.64 2.64 0 0 0 2.48 1.84 2.48 2.48 0 0 0 2.29-1.81c1.8-4.13 3.43-8.32 5.11-12.5a2.05 2.05 0 0 0 .24-1.59 1.51 1.51 0 0 0-1.44-1.06 1.84 1.84 0 0 0-1.77 1.28c-.66 2.51-1.49 3.08-4.11 2.89-.2 0-.66 0-.66-.05v.07h-1.67a2.39 2.39 0 0 1-2.22-1.72c-.16-.43-.26-.88-.4-1.32-.33-1.07-1-1.49-1.92-1.22a1.49 1.49 0 0 0-1.09 2.15m5.71 4.65h3.64c.47 0 .64.11.46.6-.65 1.73-1.28 3.47-1.92 5.2-.07.19-.1.42-.36.43s-.31-.21-.37-.4c-.63-1.74-1.24-3.49-1.87-5.23-.16-.44-.09-.63.42-.61m-43.67 5.01c1.27-3.44 2.53-6.88 3.82-10.31a2.39 2.39 0 0 1 4.51 0c1 2.48 1.88 5 2.81 7.45.74 2 1.48 4 2.17 5.94.4 1.18-.05 1.89-1.26 2.17-.92.21-1.44-.13-1.83-1.26-.69-2-1.35-4.05-2-6.08s-1.29-3.82-1.94-5.74c-.35.18-.34.47-.42.71q-1.87 5.49-3.76 11c-.43 1.27-1.09 1.69-2.08 1.4s-1.41-1-1-2.35c.28-1 .67-2 1-2.94m16.2-10.34c.2-1.08.78-1.57 1.76-1.51s1.46.42 1.47 1.49v10.48c0 1.16 0 2.41-.06 3.56a1.61 1.61 0 0 1-2.4 1.45 1.75 1.75 0 0 1-.89-1.81v-13.07a4 4 0 0 1 .06-.59m-9.92 39.06A16.78 16.78 0 1 0 428 396.66a16.8 16.8 0 0 0-16.78 16.78m3 0A13.82 13.82 0 1 1 428 427.26a13.84 13.84 0 0 1-13.82-13.82"/>
        <path class="cls-4" d="M422.65 411.18v.18a6.8 6.8 0 0 1 1.5-2.2 6.45 6.45 0 0 1 4.57-2.1 8 8 0 0 1 5.32 2.4c1.26 1.16 2.14 1.73 3.22.6s0-2.8-1.18-3.77-4.52-3.35-8.51-2.9a10.83 10.83 0 0 0-7.59 5.23 9.7 9.7 0 0 0-1.47 4.78v.38a9.94 9.94 0 0 0 10 9.51 10.1 10.1 0 0 0 9.79-8.22c0-.57.23-1.18.23-1.78a2 2 0 0 0-1.8-2.1h-14Zm-.24 3h12.09a5.81 5.81 0 0 1-6 4.4c-2.9 0-5.28-1.4-6-4.4"/>
      </g>
      <g style="clip-path:url(#clip-path-8)" class="cls-2">
        <path class="cls-4" d="M189.74 113.1c-5-5.76-4.77-13.68.44-20.14 3.91-4.84 9.27-6.94 14.93-8.67a43.6 43.6 0 0 1 15.12-2 10.4 10.4 0 0 0 3.76-.37c3.17-1 3.95-3.38 2-6.24 0 3.47-1.21 4.63-4.79 4.43-2-.11-3.95-.36-5.43-1.84s-2.31-3.16-1.13-5.3a3.49 3.49 0 0 0-2 5c1.06 2.41.94 2.62-1.68 2.87-7.71.74-15.23 2.15-22 6.14-3.95 2.32-7.26 5.26-9.05 9.61a10.48 10.48 0 0 0 2.38 11.76 28.3 28.3 0 0 0 7.14 5.05l.27-.27M100 154.88a151 151 0 0 1 17.79-12.48c9.25-5.39 19.38-8.57 29.48-11.81l3.44-1.11v-.3a18.7 18.7 0 0 0-4.84.74 120 120 0 0 0-24.87 6.9c-7.45 3.13-13.27 8.37-18.4 14.46-.94 1.12-1.72 2.37-2.57 3.57Zm14.33-24.31c10.14-2.51 20.34-4.78 30.94-4.44a43 43 0 0 0-7.76-1.17 46.4 46.4 0 0 0-8.08.13 30.2 30.2 0 0 0-7.83 1.91 40.6 40.6 0 0 0-7.27 3.6"/>
        <path class="cls-4" d="M189.47 113.37c.12.34.36.3.63.18l-.36-.45zM100 154.85h-.08v.08h.06m66.66-83.74c-2.24-1.19-4-.9-5.25 1a6 6 0 0 0-.48.72 2.8 2.8 0 0 1-1.69 1.26.46.46 0 0 1-.61-.11 2.47 2.47 0 0 1-.35-2.82 5 5 0 0 1 2.19-2.24 9.25 9.25 0 0 1 7.57-.16 4.73 4.73 0 0 1 3 4.82c0 2.15-1.25 3.39-3.12 4.13-.56.22-1.15.38-1.73.55-.94.27-1.91.45-2.83.81s-1.37 1.2-1.9 2a.28.28 0 0 0 .05.38c1.59 1.86 3.53 2.34 5.31.38.27-.3.46-.67.71-1 .4-.47 1.65-.9 1.95-.69a2.17 2.17 0 0 1 .36 2.38 6 6 0 0 1-5.38 2.94 8.5 8.5 0 0 1-3.21-.58c-2.17-.8-3.09-2.07-3.11-4.19s.91-3.25 3.1-4.09c.38-.14.77-.25 1.15-.38a27 27 0 0 0 4.12-1.32 2.07 2.07 0 0 0 .14-3.71m6.31-.92c.45 1.31 1 2.6 1.48 3.88 1.22 3.06 2.46 6.1 3.68 9.16a2.63 2.63 0 0 0 2.48 1.84 2.49 2.49 0 0 0 2.29-1.81c1.8-4.13 3.43-8.32 5.11-12.5a2 2 0 0 0 .23-1.59 1.49 1.49 0 0 0-1.44-1.06 1.83 1.83 0 0 0-1.77 1.28c-.66 2.51-1.5 3.08-4.11 2.89h-.66v.07h-1.67a2.38 2.38 0 0 1-2.22-1.72c-.17-.43-.26-.88-.4-1.32-.33-1.07-1-1.49-1.93-1.22a1.49 1.49 0 0 0-1.08 2.15m5.72 4.6h3.64c.46 0 .64.11.46.6-.65 1.73-1.28 3.47-1.92 5.2-.07.19-.11.42-.36.43s-.31-.21-.38-.4c-.62-1.74-1.23-3.49-1.86-5.23-.16-.44-.1-.63.42-.61M135 80c1.27-3.44 2.53-6.88 3.82-10.31a2.39 2.39 0 0 1 4.51 0c.95 2.48 1.88 5 2.81 7.45.74 2 1.48 4 2.17 5.94.4 1.18 0 1.89-1.26 2.17-.92.21-1.44-.13-1.83-1.26-.69-2-1.35-4-2-6.08s-1.29-3.82-1.94-5.74c-.35.18-.34.47-.42.71q-1.87 5.49-3.76 11c-.43 1.27-1.09 1.69-2.08 1.4s-1.41-1-1-2.35c.28-1 .67-2 1-2.94m16.18-10.34c.2-1.08.78-1.58 1.76-1.51s1.46.42 1.47 1.49v6.82h.05v3.66c0 1.16 0 2.41-.06 3.56a1.61 1.61 0 0 1-2.42 1.45 1.76 1.76 0 0 1-.88-1.81V70.24a3 3 0 0 1 .06-.59m-9.96 39.06A16.78 16.78 0 1 0 158 91.93a16.8 16.8 0 0 0-16.78 16.78m3 0A13.82 13.82 0 1 1 158 122.53a13.84 13.84 0 0 1-13.82-13.82m43.34 21.88a73.4 73.4 0 0 0 15.95-5.91c3-1.6 5.81-3.5 7.57-6.58 2.52-4.4 1.06-8.61-4.06-10.77 2.79 3.26 2.49 5.46-.94 7.69a64.16 64.16 0 0 1-27.7 8.81c-7.49.65-34.41 13.61-34.41 13.61-19.76 9.14-39.2 28.13-48 48-.21.48-.44 1-.71 1.56 1.06-.13 1.17-1 1.51-1.57 0 0 15.42-24.22 38.83-36.35s39-16.61 52-18.47"/>
        <path class="cls-4" d="M189.74 113.1c-5-5.76-4.77-13.68.44-20.14 3.91-4.84 9.27-6.94 14.93-8.67a43.6 43.6 0 0 1 15.12-2 10.4 10.4 0 0 0 3.76-.37c3.17-1 3.95-3.38 2-6.24 0 3.47-1.21 4.63-4.79 4.43-2-.11-3.95-.36-5.43-1.84s-2.31-3.16-1.13-5.3a3.49 3.49 0 0 0-2 5c1.06 2.41.94 2.62-1.68 2.87-7.71.74-15.23 2.15-22 6.14-3.95 2.32-7.26 5.26-9.05 9.61a10.48 10.48 0 0 0 2.38 11.76 28.3 28.3 0 0 0 7.14 5.05l.27-.27m-50.7 3.56c-4.22-2.07-6.93-5.56-9-9.65-3.54-7.05-4.45-14.65-4.68-22.4-.08-2.62-.28-2.76-2.76-1.86a3.49 3.49 0 0 1-4.86-2.28c2 1.32 3.79.6 5.36-.78s2-3.34 2.19-5.29c.44-3.57-.64-4.86-4.11-5.08 3-1.73 5.3-.79 6.1 2.43a10.5 10.5 0 0 1 .13 3.78 43.3 43.3 0 0 0 1 15.22s2.45 15.6 10.58 25.91M100 154.88a151 151 0 0 1 17.79-12.48c9.25-5.39 19.38-8.57 29.48-11.81l3.44-1.11v-.3a18.7 18.7 0 0 0-4.84.74 120 120 0 0 0-24.87 6.9c-7.45 3.13-13.27 8.37-18.4 14.46-.94 1.12-1.72 2.37-2.57 3.57Zm14.33-24.31c10.14-2.51 20.34-4.78 30.94-4.44a43 43 0 0 0-7.76-1.17 46.4 46.4 0 0 0-8.08.13 30.2 30.2 0 0 0-7.83 1.91 40.6 40.6 0 0 0-7.27 3.6"/>
        <path class="cls-4" d="M189.47 113.37c.12.34.36.3.63.18l-.36-.45zM100 154.85h-.08v.08h.06m66.66-83.74c-2.24-1.19-4-.9-5.25 1a6 6 0 0 0-.48.72 2.8 2.8 0 0 1-1.69 1.26.46.46 0 0 1-.61-.11 2.47 2.47 0 0 1-.35-2.82 5 5 0 0 1 2.19-2.24 9.25 9.25 0 0 1 7.57-.16 4.73 4.73 0 0 1 3 4.82c0 2.15-1.25 3.39-3.12 4.13-.56.22-1.15.38-1.73.55-.94.27-1.91.45-2.83.81s-1.37 1.2-1.9 2a.28.28 0 0 0 .05.38c1.59 1.86 3.53 2.34 5.31.38.27-.3.46-.67.71-1 .4-.47 1.65-.9 1.95-.69a2.17 2.17 0 0 1 .36 2.38 6 6 0 0 1-5.38 2.94 8.5 8.5 0 0 1-3.21-.58c-2.17-.8-3.09-2.07-3.11-4.19s.91-3.25 3.1-4.09c.38-.14.77-.25 1.15-.38a27 27 0 0 0 4.12-1.32 2.07 2.07 0 0 0 .14-3.71m6.31-.92c.45 1.31 1 2.6 1.48 3.88 1.22 3.06 2.46 6.1 3.68 9.16a2.63 2.63 0 0 0 2.48 1.84 2.49 2.49 0 0 0 2.29-1.81c1.8-4.13 3.43-8.32 5.11-12.5a2 2 0 0 0 .23-1.59 1.49 1.49 0 0 0-1.44-1.06 1.83 1.83 0 0 0-1.77 1.28c-.66 2.51-1.5 3.08-4.11 2.89h-.66v.07h-1.67a2.38 2.38 0 0 1-2.22-1.72c-.17-.43-.26-.88-.4-1.32-.33-1.07-1-1.49-1.93-1.22a1.49 1.49 0 0 0-1.08 2.15m5.72 4.6h3.64c.46 0 .64.11.46.6-.65 1.73-1.28 3.47-1.92 5.2-.07.19-.11.42-.36.43s-.31-.21-.38-.4c-.62-1.74-1.23-3.49-1.86-5.23-.16-.44-.1-.63.42-.61M135 80c1.27-3.44 2.53-6.88 3.82-10.31a2.39 2.39 0 0 1 4.51 0c.95 2.48 1.88 5 2.81 7.45.74 2 1.48 4 2.17 5.94.4 1.18 0 1.89-1.26 2.17-.92.21-1.44-.13-1.83-1.26-.69-2-1.35-4-2-6.08s-1.29-3.82-1.94-5.74c-.35.18-.34.47-.42.71q-1.87 5.49-3.76 11c-.43 1.27-1.09 1.69-2.08 1.4s-1.41-1-1-2.35c.28-1 .67-2 1-2.94m16.18-10.34c.2-1.08.78-1.58 1.76-1.51s1.46.42 1.47 1.49v6.82h.05v3.66c0 1.16 0 2.41-.06 3.56a1.61 1.61 0 0 1-2.42 1.45 1.76 1.76 0 0 1-.88-1.81V70.24a3 3 0 0 1 .06-.59m-9.96 39.06A16.78 16.78 0 1 0 158 91.93a16.8 16.8 0 0 0-16.78 16.78m3 0A13.82 13.82 0 1 1 158 122.53a13.84 13.84 0 0 1-13.82-13.82"/>
        <path class="cls-4" d="m152.69 106.45-.06.18a7 7 0 0 1 1.51-2.2 6.45 6.45 0 0 1 4.57-2.1 8 8 0 0 1 5.32 2.4c1.25 1.16 2.14 1.73 3.22.6s0-2.8-1.18-3.77-4.53-3.35-8.52-2.9-6.78 3.74-7.59 5.23a9.83 9.83 0 0 0-1.46 4.78v.38a9.94 9.94 0 0 0 10 9.51 10.1 10.1 0 0 0 9.8-8.22c0-.57.23-1.18.23-1.78a2 2 0 0 0-1.8-2.1h-14Zm-.24 3h12.09a5.81 5.81 0 0 1-6 4.4c-2.9 0-5.28-1.4-6.05-4.4"/>
      </g>
      <g style="clip-path:url(#clip-path-9)" class="cls-2">
        <path class="cls-4" d="M401.87 45c-5-5.76-4.78-13.68.44-20.14 3.9-4.84 9.27-6.94 14.93-8.66a43.1 43.1 0 0 1 15.12-2 10.6 10.6 0 0 0 3.76-.38c3.17-1 3.95-3.38 2-6.24 0 3.47-1.21 4.64-4.8 4.43-2-.11-3.94-.36-5.43-1.84s-2.3-3.16-1.12-5.3a3.5 3.5 0 0 0-2 5c1.06 2.41.94 2.62-1.68 2.87-7.71.74-15.23 2.15-22 6.14-3.95 2.32-7.26 5.26-9.05 9.61a10.5 10.5 0 0 0 2.37 11.76 28.5 28.5 0 0 0 7.15 5.05l.27-.27m-89.72 41.79a152 152 0 0 1 17.79-12.48c9.25-5.39 19.38-8.57 29.48-11.81l3.44-1.11v-.3a18.7 18.7 0 0 0-4.84.74 120 120 0 0 0-24.87 6.9c-7.45 3.13-13.27 8.37-18.4 14.46-.94 1.12-1.72 2.37-2.57 3.57Zm14.35-24.31c10.14-2.51 20.34-4.78 30.94-4.44a43 43 0 0 0-7.76-1.17 46.4 46.4 0 0 0-8.08.13 30.7 30.7 0 0 0-7.83 1.88 40.6 40.6 0 0 0-7.27 3.6m75.14-17.2c.12.34.36.3.63.19l-.36-.46z"/>
        <path class="cls-4" d="m312.17 86.79-.08-.05v.08h.06m66.62-83.69c-2.24-1.19-4-.9-5.26 1a8 8 0 0 0-.47.72 2.8 2.8 0 0 1-1.69 1.26.46.46 0 0 1-.61-.11 2.46 2.46 0 0 1-.35-2.81A4.92 4.92 0 0 1 372.58.9a9.25 9.25 0 0 1 7.57-.17 4.73 4.73 0 0 1 3 4.82c0 2.16-1.25 3.39-3.12 4.13-.56.22-1.15.38-1.73.55-.94.27-1.91.45-2.83.81s-1.37 1.2-1.9 2a.28.28 0 0 0 .05.38c1.59 1.86 3.53 2.34 5.31.38.27-.29.45-.67.71-1 .4-.47 1.65-.9 2-.69a2.17 2.17 0 0 1 .36 2.38 6 6 0 0 1-5.38 2.94 8.5 8.5 0 0 1-3.21-.58c-2.17-.8-3.09-2.06-3.11-4.19s.91-3.25 3.1-4.08c.38-.15.77-.26 1.15-.39a28.6 28.6 0 0 0 4.12-1.31 2.08 2.08 0 0 0 .14-3.72m6.26-.87c.45 1.31 1 2.6 1.48 3.88 1.22 3.06 2.46 6.1 3.68 9.16a2.63 2.63 0 0 0 2.48 1.84 2.49 2.49 0 0 0 2.29-1.81c1.8-4.13 3.43-8.32 5.11-12.5a2 2 0 0 0 .23-1.58A1.49 1.49 0 0 0 398.9.21a1.83 1.83 0 0 0-1.76 1.28c-.66 2.51-1.5 3.08-4.11 2.89h-.66v.02h-1.67a2.37 2.37 0 0 1-2.22-1.72c-.17-.43-.26-.88-.4-1.32-.33-1.07-1-1.48-1.93-1.21a1.48 1.48 0 0 0-1.08 2.14m5.71 4.65h3.64c.6 0 .64.11.46.6-.65 1.73-1.28 3.47-1.92 5.21-.07.18-.11.41-.36.42s-.31-.21-.38-.4c-.62-1.77-1.22-3.48-1.86-5.22-.16-.44-.1-.63.42-.61m-43.67 5c1.27-3.44 2.53-6.88 3.82-10.31a2.39 2.39 0 0 1 4.51 0c.95 2.48 1.88 5 2.81 7.45.74 2 1.48 4 2.17 5.94.4 1.18-.05 1.89-1.26 2.17-.92.21-1.44-.13-1.83-1.26-.69-2-1.35-4.05-2-6.08s-1.33-3.78-1.97-5.71c-.35.19-.34.47-.42.71q-1.87 5.49-3.76 11c-.43 1.27-1.09 1.69-2.08 1.4s-1.41-1-1-2.35c.28-1 .67-2 1-2.94m16.23-10.37c.2-1.08.78-1.57 1.76-1.5s1.46.41 1.47 1.48v6.82h.05v3.66c0 1.16 0 2.41-.06 3.56a1.62 1.62 0 0 1-2.41 1.46 1.79 1.79 0 0 1-.88-1.82V2.18a3 3 0 0 1 .06-.59m-9.97 39.06a16.78 16.78 0 1 0 16.78-16.78 16.8 16.8 0 0 0-16.78 16.78m3 0a13.82 13.82 0 1 1 13.82 13.82 13.84 13.84 0 0 1-13.82-13.82m43.3 21.88a73.4 73.4 0 0 0 16-5.91c3-1.6 5.81-3.5 7.57-6.58 2.52-4.4 1.05-8.61-4.06-10.77 2.79 3.26 2.48 5.46-.94 7.69a64.16 64.16 0 0 1-27.7 8.81c-7.49.65-34.41 13.61-34.41 13.61-19.76 9.14-39.21 28.13-48 48-.21.48-.44 1-.71 1.56 1.06-.13 1.17-1 1.51-1.57 0 0 15.42-24.22 38.83-36.35s39-16.61 52-18.47M401.87 45c-5-5.76-4.78-13.68.44-20.14 3.9-4.84 9.27-6.94 14.93-8.66a43.1 43.1 0 0 1 15.12-2 10.6 10.6 0 0 0 3.76-.38c3.17-1 3.95-3.38 2-6.24 0 3.47-1.21 4.64-4.8 4.43-2-.11-3.94-.36-5.43-1.84s-2.3-3.16-1.12-5.3a3.5 3.5 0 0 0-2 5c1.06 2.41.94 2.62-1.68 2.87-7.71.74-15.23 2.15-22 6.14-3.95 2.32-7.26 5.26-9.05 9.61a10.5 10.5 0 0 0 2.37 11.76 28.5 28.5 0 0 0 7.15 5.05l.27-.27m-50.74 3.6c-4.22-2.07-6.93-5.56-9-9.65-3.54-7-4.45-14.65-4.68-22.4-.08-2.62-.28-2.76-2.76-1.86a3.49 3.49 0 0 1-4.86-2.28c2.05 1.32 3.79.6 5.36-.78s1.95-3.34 2.19-5.29c.44-3.57-.64-4.86-4.11-5.08 3-1.73 5.3-.79 6.1 2.43a10.5 10.5 0 0 1 .13 3.78 43.3 43.3 0 0 0 1 15.22s2.45 15.6 10.58 25.91"/>
        <path class="cls-4" d="M312.11 86.82a152 152 0 0 1 17.79-12.48c9.25-5.39 19.38-8.57 29.48-11.81l3.44-1.11v-.3a18.7 18.7 0 0 0-4.84.74 120 120 0 0 0-24.87 6.9c-7.45 3.13-13.27 8.37-18.4 14.46-.94 1.12-1.72 2.37-2.57 3.57Zm14.35-24.31c10.14-2.51 20.34-4.78 30.94-4.44a43 43 0 0 0-7.76-1.17 46.4 46.4 0 0 0-8.08.13 30.7 30.7 0 0 0-7.83 1.88 40.6 40.6 0 0 0-7.27 3.6m75.14-17.2c.12.34.36.3.63.19l-.36-.46z"/>
        <path class="cls-4" d="m312.17 86.79-.08-.05v.08h.06m66.62-83.69c-2.24-1.19-4-.9-5.26 1a8 8 0 0 0-.47.72 2.8 2.8 0 0 1-1.69 1.26.46.46 0 0 1-.61-.11 2.46 2.46 0 0 1-.35-2.81A4.92 4.92 0 0 1 372.58.9a9.25 9.25 0 0 1 7.57-.17 4.73 4.73 0 0 1 3 4.82c0 2.16-1.25 3.39-3.12 4.13-.56.22-1.15.38-1.73.55-.94.27-1.91.45-2.83.81s-1.37 1.2-1.9 2a.28.28 0 0 0 .05.38c1.59 1.86 3.53 2.34 5.31.38.27-.29.45-.67.71-1 .4-.47 1.65-.9 2-.69a2.17 2.17 0 0 1 .36 2.38 6 6 0 0 1-5.38 2.94 8.5 8.5 0 0 1-3.21-.58c-2.17-.8-3.09-2.06-3.11-4.19s.91-3.25 3.1-4.08c.38-.15.77-.26 1.15-.39a28.6 28.6 0 0 0 4.12-1.31 2.08 2.08 0 0 0 .14-3.72m6.26-.87c.45 1.31 1 2.6 1.48 3.88 1.22 3.06 2.46 6.1 3.68 9.16a2.63 2.63 0 0 0 2.48 1.84 2.49 2.49 0 0 0 2.29-1.81c1.8-4.13 3.43-8.32 5.11-12.5a2 2 0 0 0 .23-1.58A1.49 1.49 0 0 0 398.9.21a1.83 1.83 0 0 0-1.76 1.28c-.66 2.51-1.5 3.08-4.11 2.89h-.66v.02h-1.67a2.37 2.37 0 0 1-2.22-1.72c-.17-.43-.26-.88-.4-1.32-.33-1.07-1-1.48-1.93-1.21a1.48 1.48 0 0 0-1.08 2.14m5.71 4.65h3.64c.6 0 .64.11.46.6-.65 1.73-1.28 3.47-1.92 5.21-.07.18-.11.41-.36.42s-.31-.21-.38-.4c-.62-1.77-1.22-3.48-1.86-5.22-.16-.44-.1-.63.42-.61m-43.67 5c1.27-3.44 2.53-6.88 3.82-10.31a2.39 2.39 0 0 1 4.51 0c.95 2.48 1.88 5 2.81 7.45.74 2 1.48 4 2.17 5.94.4 1.18-.05 1.89-1.26 2.17-.92.21-1.44-.13-1.83-1.26-.69-2-1.35-4.05-2-6.08s-1.33-3.78-1.97-5.71c-.35.19-.34.47-.42.71q-1.87 5.49-3.76 11c-.43 1.27-1.09 1.69-2.08 1.4s-1.41-1-1-2.35c.28-1 .67-2 1-2.94m16.23-10.37c.2-1.08.78-1.57 1.76-1.5s1.46.41 1.47 1.48v6.82h.05v3.66c0 1.16 0 2.41-.06 3.56a1.62 1.62 0 0 1-2.41 1.46 1.79 1.79 0 0 1-.88-1.82V2.18a3 3 0 0 1 .06-.59m-9.97 39.06a16.78 16.78 0 1 0 16.78-16.78 16.8 16.8 0 0 0-16.78 16.78m3 0a13.82 13.82 0 1 1 13.82 13.82 13.84 13.84 0 0 1-13.82-13.82"/>
        <path class="cls-4" d="m364.82 38.39-.06.18a7 7 0 0 1 1.51-2.2 6.45 6.45 0 0 1 4.57-2.1 8 8 0 0 1 5.32 2.4c1.25 1.16 2.14 1.73 3.22.6s0-2.8-1.18-3.77-4.53-3.35-8.52-2.9-6.78 3.74-7.59 5.23a9.83 9.83 0 0 0-1.46 4.78v.38a9.94 9.94 0 0 0 10 9.51 10.1 10.1 0 0 0 9.8-8.22c0-.57.23-1.18.23-1.78a2 2 0 0 0-1.8-2.1h-14Zm-.24 3h12.09a5.81 5.81 0 0 1-6 4.4c-2.9 0-5.28-1.4-6.05-4.4"/>
      </g>
      <g style="clip-path:url(#clip-path-10)" class="cls-2">
        <path class="cls-4" d="M441.06 191.18c-5-5.76-4.78-13.69.43-20.14 3.91-4.84 9.28-6.94 14.94-8.67a43.3 43.3 0 0 1 15.12-2 10.2 10.2 0 0 0 3.76-.38c3.17-1 3.95-3.37 2-6.24 0 3.47-1.21 4.64-4.8 4.44-2-.12-3.94-.36-5.43-1.85s-2.28-3.2-1.08-5.34a3.48 3.48 0 0 0-2 5c1.05 2.41.93 2.62-1.68 2.87-7.71.74-15.24 2.15-22 6.15-3.95 2.32-7.26 5.26-9 9.61a10.46 10.46 0 0 0 2.37 11.75 28 28 0 0 0 7.14 5.05l.28-.26M351.29 233a151.6 151.6 0 0 1 17.8-12.48c9.24-5.39 19.37-8.56 29.47-11.81 1.15-.37 2.3-.73 3.44-1.11v-.29a18.2 18.2 0 0 0-4.83.74 118.4 118.4 0 0 0-24.87 6.9c-7.46 3.12-13.28 8.36-18.4 14.45-.94 1.12-1.72 2.38-2.58 3.57Zm14.35-24.36c10.14-2.5 20.34-4.78 30.94-4.44a43 43 0 0 0-7.75-1.17 47.5 47.5 0 0 0-8.09.13 30.7 30.7 0 0 0-7.83 1.88 41.6 41.6 0 0 0-7.27 3.6"/>
        <path class="cls-4" d="M440.78 191.44c.13.34.37.31.63.19l-.35-.45zm-89.43 41.48h-.08v.07h.05M418 149.27c-2.24-1.2-4-.9-5.25 1a6 6 0 0 0-.47.73 2.82 2.82 0 0 1-1.69 1.26.48.48 0 0 1-.62-.11 2.51 2.51 0 0 1-.35-2.82 5 5 0 0 1 2.19-2.27 9.24 9.24 0 0 1 7.58-.16 4.73 4.73 0 0 1 3 4.82c0 2.15-1.26 3.38-3.13 4.12a17 17 0 0 1-1.73.55c-.94.27-1.9.46-2.83.82s-1.37 1.19-1.9 1.94a.29.29 0 0 0 .06.39c1.59 1.85 3.53 2.34 5.3.38.27-.3.46-.67.72-1 .4-.48 1.64-.9 1.94-.69a2.15 2.15 0 0 1 .36 2.38 6 6 0 0 1-5.37 2.93 8.5 8.5 0 0 1-3.22-.57c-2.16-.81-3.08-2.07-3.1-4.19s.9-3.26 3.09-4.09c.38-.15.77-.25 1.15-.38a29 29 0 0 0 4.12-1.32 2.07 2.07 0 0 0 .14-3.71m6.26-.86c.45 1.31 1 2.6 1.49 3.89q1.83 4.58 3.68 9.15a2.61 2.61 0 0 0 2.48 1.84 2.47 2.47 0 0 0 2.29-1.81c1.79-4.13 3.42-8.32 5.1-12.5a2 2 0 0 0 .24-1.58 1.49 1.49 0 0 0-1.44-1.07 1.85 1.85 0 0 0-1.77 1.28c-.66 2.52-1.49 3.09-4.1 2.89h-.66v.07h-1.68a2.36 2.36 0 0 1-2.21-1.71c-.17-.43-.27-.89-.4-1.33-.33-1.07-1-1.48-1.93-1.21a1.48 1.48 0 0 0-1.09 2.14m5.71 4.66h3.65c.46 0 .64.11.45.6-.65 1.73-1.28 3.47-1.91 5.21-.07.19-.11.42-.36.43s-.31-.22-.38-.41q-.93-2.61-1.87-5.22c-.16-.44-.09-.64.42-.61m-43.66 4.94q1.89-5.16 3.82-10.31a2.24 2.24 0 0 1 2.26-1.57 2.28 2.28 0 0 1 2.24 1.6q1.42 3.72 2.81 7.46c.74 2 1.48 3.94 2.17 5.94.4 1.18-.05 1.89-1.26 2.16-.92.21-1.44-.13-1.82-1.25-.69-2-1.36-4.06-2-6.08s-1.29-3.82-1.94-5.75c-.34.19-.34.48-.42.71l-3.75 11c-.44 1.26-1.09 1.69-2.09 1.39s-1.4-1-1-2.35c.29-1 .68-2 1-2.94m16.19-10.35c.2-1.08.78-1.58 1.76-1.51s1.46.41 1.48 1.49v6.82h.05v3.65c0 1.15 0 2.41-.06 3.56a1.61 1.61 0 0 1-2.4 1.46 1.79 1.79 0 0 1-.89-1.82v-13.06a4 4 0 0 1 .05-.59m-9.96 39.05A16.78 16.78 0 1 0 409.31 170a16.79 16.79 0 0 0-16.77 16.77m3 0a13.82 13.82 0 1 1 13.81 13.82 13.83 13.83 0 0 1-13.81-13.82m43.3 21.89a73.8 73.8 0 0 0 16-5.91c3-1.59 5.8-3.5 7.56-6.58 2.52-4.4 1.06-8.61-4.05-10.76 2.79 3.26 2.48 5.46-.94 7.68a64.2 64.2 0 0 1-27.71 8.81c-7.49.65-34.41 13.62-34.41 13.62-19.75 9.13-39.2 28.12-48 48-.22.49-.45 1-.72 1.56 1.06-.12 1.17-1 1.52-1.57 0 0 15.42-24.22 38.82-36.35s39-16.61 52-18.47"/>
        <path class="cls-4" d="M441.06 191.18c-5-5.76-4.78-13.69.43-20.14 3.91-4.84 9.28-6.94 14.94-8.67a43.3 43.3 0 0 1 15.12-2 10.2 10.2 0 0 0 3.76-.38c3.17-1 3.95-3.37 2-6.24 0 3.47-1.21 4.64-4.8 4.44-2-.12-3.94-.36-5.43-1.85s-2.28-3.2-1.08-5.34a3.48 3.48 0 0 0-2 5c1.05 2.41.93 2.62-1.68 2.87-7.71.74-15.24 2.15-22 6.15-3.95 2.32-7.26 5.26-9 9.61a10.46 10.46 0 0 0 2.37 11.75 28 28 0 0 0 7.14 5.05l.28-.26m-50.83 3.6c-4.22-2.07-6.94-5.57-9-9.66-3.54-7.05-4.45-14.65-4.69-22.39-.08-2.63-.27-2.76-2.75-1.87a3.49 3.49 0 0 1-4.87-2.28c2.06 1.32 3.79.61 5.36-.77s2-3.35 2.2-5.3c.44-3.57-.64-4.86-4.11-5.08 3-1.73 5.3-.79 6.1 2.44a10.4 10.4 0 0 1 .12 3.77 43.6 43.6 0 0 0 1 15.22s2.45 15.6 10.59 25.92M351.29 233a151.6 151.6 0 0 1 17.8-12.48c9.24-5.39 19.37-8.56 29.47-11.81 1.15-.37 2.3-.73 3.44-1.11v-.29a18.2 18.2 0 0 0-4.83.74 118.4 118.4 0 0 0-24.87 6.9c-7.46 3.12-13.28 8.36-18.4 14.45-.94 1.12-1.72 2.38-2.58 3.57Zm14.35-24.36c10.14-2.5 20.34-4.78 30.94-4.44a43 43 0 0 0-7.75-1.17 47.5 47.5 0 0 0-8.09.13 30.7 30.7 0 0 0-7.83 1.88 41.6 41.6 0 0 0-7.27 3.6"/>
        <path class="cls-4" d="M440.78 191.44c.13.34.37.31.63.19l-.35-.45zm-89.43 41.48h-.08v.07h.05M418 149.27c-2.24-1.2-4-.9-5.25 1a6 6 0 0 0-.47.73 2.82 2.82 0 0 1-1.69 1.26.48.48 0 0 1-.62-.11 2.51 2.51 0 0 1-.35-2.82 5 5 0 0 1 2.19-2.27 9.24 9.24 0 0 1 7.58-.16 4.73 4.73 0 0 1 3 4.82c0 2.15-1.26 3.38-3.13 4.12a17 17 0 0 1-1.73.55c-.94.27-1.9.46-2.83.82s-1.37 1.19-1.9 1.94a.29.29 0 0 0 .06.39c1.59 1.85 3.53 2.34 5.3.38.27-.3.46-.67.72-1 .4-.48 1.64-.9 1.94-.69a2.15 2.15 0 0 1 .36 2.38 6 6 0 0 1-5.37 2.93 8.5 8.5 0 0 1-3.22-.57c-2.16-.81-3.08-2.07-3.1-4.19s.9-3.26 3.09-4.09c.38-.15.77-.25 1.15-.38a29 29 0 0 0 4.12-1.32 2.07 2.07 0 0 0 .14-3.71m6.26-.86c.45 1.31 1 2.6 1.49 3.89q1.83 4.58 3.68 9.15a2.61 2.61 0 0 0 2.48 1.84 2.47 2.47 0 0 0 2.29-1.81c1.79-4.13 3.42-8.32 5.1-12.5a2 2 0 0 0 .24-1.58 1.49 1.49 0 0 0-1.44-1.07 1.85 1.85 0 0 0-1.77 1.28c-.66 2.52-1.49 3.09-4.1 2.89h-.66v.07h-1.68a2.36 2.36 0 0 1-2.21-1.71c-.17-.43-.27-.89-.4-1.33-.33-1.07-1-1.48-1.93-1.21a1.48 1.48 0 0 0-1.09 2.14m5.71 4.66h3.65c.46 0 .64.11.45.6-.65 1.73-1.28 3.47-1.91 5.21-.07.19-.11.42-.36.43s-.31-.22-.38-.41q-.93-2.61-1.87-5.22c-.16-.44-.09-.64.42-.61m-43.66 4.94q1.89-5.16 3.82-10.31a2.24 2.24 0 0 1 2.26-1.57 2.28 2.28 0 0 1 2.24 1.6q1.42 3.72 2.81 7.46c.74 2 1.48 3.94 2.17 5.94.4 1.18-.05 1.89-1.26 2.16-.92.21-1.44-.13-1.82-1.25-.69-2-1.36-4.06-2-6.08s-1.29-3.82-1.94-5.75c-.34.19-.34.48-.42.71l-3.75 11c-.44 1.26-1.09 1.69-2.09 1.39s-1.4-1-1-2.35c.29-1 .68-2 1-2.94m16.19-10.35c.2-1.08.78-1.58 1.76-1.51s1.46.41 1.48 1.49v6.82h.05v3.65c0 1.15 0 2.41-.06 3.56a1.61 1.61 0 0 1-2.4 1.46 1.79 1.79 0 0 1-.89-1.82v-13.06a4 4 0 0 1 .05-.59m-9.96 39.05A16.78 16.78 0 1 0 409.31 170a16.79 16.79 0 0 0-16.77 16.77m3 0a13.82 13.82 0 1 1 13.81 13.82 13.83 13.83 0 0 1-13.81-13.82"/>
        <path class="cls-4" d="m404 184.53-.06.18a7 7 0 0 1 1.5-2.21 6.44 6.44 0 0 1 4.57-2.09 8 8 0 0 1 5.33 2.4c1.25 1.15 2.13 1.73 3.22.59s0-2.8-1.19-3.77-4.52-3.34-8.51-2.89a10.86 10.86 0 0 0-7.59 5.23 9.9 9.9 0 0 0-1.47 4.78v.37a9.94 9.94 0 0 0 10 9.52 10.12 10.12 0 0 0 9.8-8.23c0-.57.22-1.18.22-1.77a2 2 0 0 0-.49-1.41 2.06 2.06 0 0 0-1.31-.69H404Zm-.25 3h12.09a5.8 5.8 0 0 1-6 4.4c-2.9 0-5.29-1.4-6.06-4.4"/>
      </g>
    </pattern>
    <style>
      .cls-1{fill:none}.cls-2{opacity:.4}.cls-4{fill:#fff}
    </style>
  </defs>
  <path d="M236.42 517.37a33.67 33.67 0 1 1 33.67-33.66 33.7 33.7 0 0 1-33.67 33.66" transform="translate(-202.76 -450.04)" style="fill:#0071ba"/>
  <path d="M252.83 491c-.83-.45-4.91-2.66-5.67-3s-1.33-.47-1.93.36-2.29 2.66-2.8 3.21-1 .6-1.84.14a23 23 0 0 1-6.59-4.41 25.2 25.2 0 0 1-4.49-6c-.47-.86 0-1.3.44-1.71s.88-1 1.32-1.43a6 6 0 0 0 .9-1.38 1.57 1.57 0 0 0 0-1.49c-.19-.43-1.73-4.65-2.37-6.37s-1.36-1.47-1.85-1.49-1.06-.1-1.62-.13a3.1 3.1 0 0 0-2.29 1 9.43 9.43 0 0 0-3.23 6.94c-.16 4.17 2.72 8.3 3.12 8.88s5.51 9.6 14 13.31 8.52 2.58 10.07 2.5 5.08-1.86 5.86-3.81a7.16 7.16 0 0 0 .65-4c-.2-.36-.76-.6-1.59-1.05" transform="translate(-202.76 -450.04)" style="fill:#f1f2f1;fill-rule:evenodd"/>
</svg>
