<svg xmlns="http://www.w3.org/2000/svg" viewBox="0 0 111.68 111.82">
  <path d="M581 696.2c-3.72-13-14.19-21.39-23.39-18.76s-13.64 15.3-9.93 28.29 14.19 21.38 23.39 18.75 13.65-15.29 9.93-28.28" transform="translate(-540.13 -663.08)" style="fill:#d11826"/>
  <path d="M573.5 752.05a55.8 55.8 0 0 0-18.38 2.2 39.7 39.7 0 0 0-12.73 6.37 24.51 24.51 0 0 0 21.87 14.14h27.27c-.21-2.77-.86-6.23-2.66-8.68-2.88-3.93-11.18-10.67-15.37-14" transform="translate(-540.13 -663.08)" style="fill:#d3222f"/>
  <path d="m566.63 729.62-1.1.28c-6.53 1.63-17.38-.9-25.4-6.86v27.58a24 24 0 0 0 .16 2.69c6.85-2.67 16.39-5 29-5-3.56-3.93-8.57-11.77-2.66-18.67" transform="translate(-540.13 -663.08)" style="fill:#d81a29"/>
  <path d="M628.62 663.08h-64.36c-11.68 0-21.75 8.09-23.76 19.14a40.1 40.1 0 0 1 23.29-10.62h40.7l-9.49 5.67h-10.55c12.26 8.4 12.14 22.73 12.14 22.73-.05.78-.12 1.54-.21 2.27 0 .34-.1.66-.15 1s-.1.77-.17 1.14-.19.88-.29 1.3c0 .24-.09.48-.15.71-.13.5-.27 1-.42 1.46 0 .14-.08.29-.13.43-.17.53-.35 1-.55 1.54l-.09.23c-.21.54-.44 1.06-.68 1.57v.09c-.25.54-.52 1-.81 1.55-.29.51-.59 1-.91 1.48l-.21.31-.09.13c-.32.47-.66.92-1 1.36s-.6.76-.89 1.07c-.41.47-.84.91-1.27 1.34l-.23.21a29.7 29.7 0 0 1-4.37 3.48l-.2.12a6 6 0 0 0-1.53 1.43c-.13.17-.25.35-.38.53l-.35.51c-.12.17-.22.34-.33.51l-.18.23-.29.49-.05.1q-.15.24-.27.48l-.06.11c-.08.16-.17.31-.24.47l-.06.12c-.08.16-.15.32-.22.48a.6.6 0 0 0-.05.12c-.07.16-.14.32-.2.48l-.05.12c-.06.16-.12.32-.17.49a1 1 0 0 0 0 .1c-.05.17-.11.34-.15.51s0 0 0 .06a10.4 10.4 0 0 0-.37 2.2 1 1 0 0 0 0 .18v1.89l.06.31c0 .1 0 .21.08.31a2 2 0 0 0 .09.31c0 .1.06.21.1.31s.07.2.11.31.08.21.13.31.09.2.14.3.1.21.16.32l.16.29.2.32.19.29.23.32.21.28.27.32a3 3 0 0 0 .24.27c.09.11.2.22.3.32l.27.27.34.32.29.26c.13.11.26.22.4.32l.31.25.45.33.33.24.51.33.33.22.62.36.31.18c.32.18.65.36 1 .53 0 0 19.41 11.16 15 31.9h26.89c13.07 0 23.19-11.07 23.19-24.14v-64.4a22.86 22.86 0 0 0-23.19-23.18m16.57 34.07H629.1v18.93h-8.52v-18.93h-18v-7.57h18v-17h8.52v17h16.09Z" transform="translate(-540.13 -663.08)" style="fill:#e51524"/>
  <path style="fill:#c29e25" d="M89.34 26.86V8.17h-8.5v18.69H62.15v6.8h18.69v18.69h8.5V33.66h15.29v-6.8z"/>
  <path d="M586.73 742.93c-.35-.17-.68-.38-1-.56-.11-.06-.2-.14-.3-.2l-.63-.37-.33-.22-.51-.34-.33-.24-.45-.33-.31-.25c-.14-.1-.27-.21-.4-.32l-.29-.26-.34-.32-.27-.27c-.1-.1-.21-.21-.3-.32a3 3 0 0 1-.24-.27l-.27-.32-.21-.28-.23-.32-.19-.29-.2-.32-.16-.29c-.06-.11-.11-.21-.16-.32l-.14-.3-.13-.31c0-.11-.08-.2-.11-.31s-.07-.21-.1-.31-.07-.21-.09-.31 0-.21-.08-.31l-.06-.31v-.63a3 3 0 0 1 0-.29v-.97a1 1 0 0 1 0-.18 10.4 10.4 0 0 1 .37-2.2s0 0 0-.06.1-.34.15-.51v-.1c0-.17.11-.33.17-.49l.05-.12c.06-.16.13-.32.2-.48a.6.6 0 0 1 .05-.12c.07-.16.14-.32.22-.48l.06-.12c.07-.16.16-.32.24-.47l.06-.11c.08-.16.17-.32.27-.49a.4.4 0 0 1 .05-.09l.21-.45.05-.07.32-.51.35-.51q.53-.74 1.08-1.44l1-.64a30.3 30.3 0 0 0 4.39-3.47c.08-.07.15-.42.23-.49.43-.43.86.09 1.27-1.61h.3s.32.55.32.54h-.3c.31-.35.45-.71.74-1.08h-.07c.07-.09.1-.18.17-.27.19-.25.35-.5.51-.72s.38-.24.47-.37h.18l-.22.15h-.06a4 4 0 0 1 .27-.51c.31-.48.62-1.06.91-1.57v-.06c.28-.5.56-1 .81-1.57v-.1c.24-.51.47-1 .68-1.57l.09-.24c.2-.5.38-1 .55-1.54 0-.14.09-.29.13-.43.15-.48.29-1 .42-1.46.06-.23.1-.47.15-.71.1-.42.2-.85.29-1.3s.12-.76.17-1.14.11-.66.15-1c.09-.73.16-2 .21-2.74 0 0 .12-13-12.14-23.18H595l9.47-5.1h-40.7A40.32 40.32 0 0 0 541 682a25 25 0 0 0 .12 4.22V723c6.8 6 18.38 8.49 24.91 6.86.36-.09.49-.48.86-.57 0 0-.18-.31-.17-.31h-.07c-5.91 8.5-.9 15 2.65 19a79.8 79.8 0 0 0-29 5.17 24.2 24.2 0 0 0 2.11 7.38 39.5 39.5 0 0 1 12.72-6.34A55.3 55.3 0 0 1 573.5 752c4.19 3.35 12.49 10.17 15.37 14.1 1.8 2.45 2.45 5.36 2.66 8.76h10.2c4.41-20.39-15-32-15-32M571 724.48c-9.2 2.63-19.67-5.76-23.39-18.75s.73-25.65 9.93-28.29 19.67 5.77 23.39 18.76-.73 25.65-9.93 28.28m18.77-6.8" transform="translate(-540.13 -663.08)" style="fill:#c29e25"/>
  <path d="M592 714.79c-.06.1-.12.21-.19.31l.21-.31m-2.23 2.87a13 13 0 0 0 .89-1.07c-.29.37-.58.73-.89 1.08ZM588.5 719l-.23.21zm-6.72 5.82-.35.51zm14.45-21.55c-.05.38-.11.77-.17 1.14.06-.37.11-.76.17-1.14m-10.8 38.88.3.18zm-3.59-2.63-.27-.27zm2.63 2.05.33.22zm11.3-35.86-.15.71c.06-.23.1-.47.15-.71m-13.97 19.08c.13-.18.25-.36.38-.53a7.5 7.5 0 0 1 1.54-1.52l.19-.22c-.34 0-.68.53-1 .74-.37.47-.73 1-1.08 1.53m13.37-16.91c0 .14-.08.29-.13.43 0-.14.09-.29.13-.43m-.68 1.97-.09.23zm-.77 1.8v.09zm-14.99 21.19v-.37zm2.24 5.82a3 3 0 0 0 .24.27 3 3 0 0 1-.24-.27m-1.85-8.57a10.4 10.4 0 0 0-.37 2.2 10.4 10.4 0 0 1 .37-2.2m.17-.57c-.05.17-.11.34-.15.51 0-.17.1-.34.15-.51m.15 6.7.14.3zm1.93-10.84c-.12.17-.22.34-.33.51.11-.17.21-.34.33-.51m-1.87 3.55c-.06.16-.12.32-.17.48 0-.16.11-.32.17-.48m.6 8.52a3 3 0 0 0 .19.28 3 3 0 0 1-.19-.28m-1.32-3.72v.32zM579 735a2 2 0 0 0 .09.31 2 2 0 0 1-.09-.31m-.24-1.9v.34zm.47 2.5c0 .11.07.2.11.31 0-.11-.08-.2-.11-.31m.54 1.24.16.29zm2.41 3 .29.26zM581 726l-.29.49zm2.63 15 .33.24zm-.76-.58.31.25zm-2.32-2.36.21.28zm-.2-10.92c-.08.15-.17.31-.24.47.07-.16.16-.32.24-.47m-.3.59c-.08.16-.15.32-.22.48.07-.16.14-.32.22-.48m-1.15 6.63.06.31z" transform="translate(-540.13 -663.08)" style="fill:#c29e25"/>
</svg>
