<svg data-name="Layer 1" xmlns="http://www.w3.org/2000/svg" viewBox="0 0 74.77 82.73">
  <path d="M320 475.94a27.33 27.33 0 0 1-15.14-4.56l-10.58 3.39 3.44-10.22c-6.82-9.39-7.86-23.24 2.17-36.29 22.61-17.34 47.64-1.47 47.64 20.15A27.56 27.56 0 0 1 320 475.94" transform="translate(-292.52 -420.88)" style="fill:#ea2e2e;fill-rule:evenodd"/>
  <path d="M334.21 435.73a33.08 33.08 0 0 0-28.32 50.14l-6 17.74 18.31-5.86c11.08 6.12 26 6.1 40.27-4.81 20.68-27.25 1.7-57.21-24.29-57.21" transform="translate(-292.52 -420.88)" style="fill-rule:evenodd;fill:#007342"/>
  <path d="M31.13 45.21a2.45 2.45 0 1 1-2.41-2.41 2.41 2.41 0 0 1 2.41 2.41m8.69 0a2.45 2.45 0 1 1-2.41-2.41 2.41 2.41 0 0 1 2.41 2.41m8.66 0a2.45 2.45 0 1 1-2.41-2.41 2.41 2.41 0 0 1 2.41 2.41m8.7 0a2.45 2.45 0 1 1-2.41-2.41 2.41 2.41 0 0 1 2.41 2.41" style="fill-rule:evenodd;fill:#fff"/>
  <path d="M27.9 29.65h1.92v8.83h4.33v1.6H27.9zm9.67.79a1 1 0 0 1-1.1 1 1 1 0 1 1 1.1-1m-2 2.1h1.91v7.58h-2Zm5.17 0 1.23 3.82c.22.67.38 1.27.52 1.89.14-.62.32-1.21.52-1.89l1.22-3.82h2l-2.85 7.58h-1.9l-2.83-7.54Zm8.07 4.3c.05 1.36 1.11 1.95 2.35 1.95a6.1 6.1 0 0 0 2.1-.34l.29 1.3a6.9 6.9 0 0 1-2.66.48 3.58 3.58 0 0 1-3.92-3.81c0-2.09 1.28-4.05 3.72-4.05s3.28 2 3.28 3.67a5 5 0 0 1-.06.8Zm3.35-1.33a1.63 1.63 0 0 0-1.58-1.84 1.87 1.87 0 0 0-1.77 1.84ZM35.48 61.66a7 7 0 0 1-2.74.46c-3.34 0-5.37-2.07-5.37-5.26a5.29 5.29 0 0 1 5.64-5.51 6 6 0 0 1 2.54.47l-.4 1.51a5.3 5.3 0 0 0-2.06-.4 3.49 3.49 0 0 0-3.69 3.84 3.42 3.42 0 0 0 3.67 3.76 6 6 0 0 0 2.09-.37ZM37 50.97h1.93v4.47a2.44 2.44 0 0 1 .95-.85 2.7 2.7 0 0 1 1.33-.34c1.3 0 2.66.85 2.66 3.26v4.44h-1.93v-4.24c0-1.08-.4-1.92-1.47-1.92a1.61 1.61 0 0 0-1.5 1.07 1.8 1.8 0 0 0-.07.58v4.51h-1.93Zm14.84 9.15a9.5 9.5 0 0 0 .13 1.81h-1.73l-.15-.83a2.79 2.79 0 0 1-2.25 1 2.24 2.24 0 0 1-2.39-2.24c0-1.89 1.7-2.86 4.51-2.85v-.12c0-.5-.2-1.32-1.55-1.32a4.07 4.07 0 0 0-2 .56l-.38-1.24a5.56 5.56 0 0 1 2.75-.66c2.44 0 3.14 1.53 3.14 3.18Zm-1.87-1.87c-1.36 0-2.66.26-2.66 1.41a1 1 0 0 0 1.1 1.08 1.55 1.55 0 0 0 1.51-1 1.2 1.2 0 0 0 .05-.41Zm6.1-5.77v1.94h1.83v1.42h-1.83v3.33c0 .93.25 1.39 1 1.39a2.6 2.6 0 0 0 .75-.08v1.44a4.2 4.2 0 0 1-1.39.2 2.2 2.2 0 0 1-1.66-.62 3 3 0 0 1-.61-2.12v-3.54h-1.07v-1.42h1.07v-1.41Z" style="fill:#fff"/>
</svg>
