<svg data-name="Layer 1" xmlns="http://www.w3.org/2000/svg" viewBox="0 0 67.33 67.33">
  <path d="M406.83 1089.21a33.67 33.67 0 1 1 33.66-33.67 33.71 33.71 0 0 1-33.66 33.67" transform="translate(-373.16 -1021.88)" style="fill:#009e53"/>
  <path d="M416.56 1057.83c-.46-.26-2.76-1.49-3.18-1.67s-.75-.26-1.08.2-1.29 1.5-1.57 1.81-.57.33-1 .07a13 13 0 0 1-3.73-2.49 14.2 14.2 0 0 1-2.51-3.39c-.26-.48 0-.73.24-1s.5-.54.75-.8a3.6 3.6 0 0 0 .5-.78.87.87 0 0 0 0-.83c-.11-.24-1-2.61-1.33-3.58s-.76-.82-1-.83-.59-.06-.91-.07a1.77 1.77 0 0 0-1.28.54 5.27 5.27 0 0 0-1.81 3.9 9.26 9.26 0 0 0 1.75 5c.23.32 3.09 5.39 7.84 7.47s4.78 1.45 5.65 1.4a4.8 4.8 0 0 0 3.29-2.14 3.93 3.93 0 0 0 .36-2.24c-.11-.2-.42-.34-.89-.59m-8.72 11.25a15.34 15.34 0 0 1-8.51-2.56l-5.95 1.91 1.93-5.75a15.48 15.48 0 1 1 12.53 6.4m0-34.07a18.6 18.6 0 0 0-15.92 28.2l-3.36 10 10.3-3.29a18.6 18.6 0 1 0 9-34.88" transform="translate(-373.16 -1021.88)" style="fill:#f1f2f1"/>
</svg>
